<svg width="26" height="33" viewBox="0 0 26 33" fill="none" xmlns="http://www.w3.org/2000/svg">
<path d="M11.7673 0.352857C12.5119 -0.117619 13.4866 -0.117619 14.2311 0.352857L15.4359 1.10691C15.842 1.35826 16.3158 1.48071 16.7964 1.45493L18.2381 1.37115C19.1316 1.31959 19.9709 1.78362 20.3702 2.54412L21.02 3.77509C21.2366 4.18756 21.5886 4.51625 22.015 4.72249L23.3213 5.34764C24.12 5.72789 24.6074 6.52706 24.5532 7.37778L24.4652 8.75054C24.4381 9.20813 24.5667 9.66572 24.8307 10.046L25.6294 11.1932C26.1235 11.9021 26.1235 12.8302 25.6294 13.5391L24.8307 14.6927C24.5667 15.0794 24.4381 15.5306 24.4652 15.9881L24.5532 17.3609C24.6074 18.2116 24.12 19.0108 23.3213 19.391L22.0285 20.0098C21.5953 20.216 21.2501 20.5511 21.0335 20.9572L20.377 22.201C19.9776 22.9615 19.1383 23.4255 18.2449 23.374L16.8032 23.2902C16.3226 23.2644 15.842 23.3869 15.4427 23.6382L14.2379 24.3987C13.4933 24.8692 12.5186 24.8692 11.7741 24.3987L10.5625 23.6382C10.1564 23.3869 9.6826 23.2644 9.20203 23.2902L7.76032 23.374C6.86686 23.4255 6.02755 22.9615 5.62821 22.201L4.97842 20.97C4.76183 20.5576 4.40986 20.2289 3.98344 20.0226L2.6771 19.3975C1.8784 19.0172 1.39106 18.2181 1.44521 17.3674L1.5332 15.9946C1.56028 15.537 1.43168 15.0794 1.1677 14.6992L0.375774 13.5455C-0.118334 12.8366 -0.118334 11.9085 0.375774 11.1996L1.1677 10.0524C1.43168 9.66572 1.56028 9.21457 1.5332 8.75699L1.44521 7.38423C1.39106 6.5335 1.8784 5.73434 2.6771 5.35409L3.9699 4.73538C4.40309 4.5227 4.75506 4.18756 4.97165 3.77509L5.62144 2.54412C6.02079 1.78362 6.86009 1.31959 7.75355 1.37115L9.19526 1.45493C9.67583 1.48071 10.1564 1.35826 10.5557 1.10691L11.7673 0.352857ZM18.4141 12.3726C18.4141 11.0051 17.8436 9.69371 16.8281 8.72679C15.8126 7.75987 14.4353 7.21666 12.9992 7.21666C11.5631 7.21666 10.1858 7.75987 9.17031 8.72679C8.15483 9.69371 7.58433 11.0051 7.58433 12.3726C7.58433 13.74 8.15483 15.0514 9.17031 16.0183C10.1858 16.9853 11.5631 17.5285 12.9992 17.5285C14.4353 17.5285 15.8126 16.9853 16.8281 16.0183C17.8436 15.0514 18.4141 13.74 18.4141 12.3726ZM0.0914928 28.4719L3.00876 21.8659C3.0223 21.8723 3.02906 21.8788 3.03583 21.8917L3.68562 23.1226C4.47755 24.6178 6.12231 25.5266 7.88215 25.4299L9.32386 25.3461C9.3374 25.3461 9.35771 25.3461 9.37124 25.359L10.5761 26.1195C10.9213 26.3322 11.2868 26.4998 11.6658 26.6158L9.1208 32.371C8.96513 32.7255 8.61993 32.964 8.22058 32.9962C7.82123 33.0284 7.43542 32.8544 7.21883 32.5322L5.03934 29.3548L1.24215 29.8898C0.856344 29.9413 0.470534 29.7931 0.226865 29.5031C-0.0168048 29.213 -0.064185 28.8135 0.0847242 28.4719H0.0914928ZM16.8776 32.3646L14.3326 26.6158C14.7117 26.4998 15.0772 26.3386 15.4224 26.1195L16.6272 25.359C16.6407 25.3526 16.6543 25.3461 16.6746 25.3461L18.1163 25.4299C19.8761 25.5266 21.5209 24.6178 22.3128 23.1226L22.9626 21.8917C22.9694 21.8788 22.9761 21.8723 22.9897 21.8659L25.9137 28.4719C26.0626 28.8135 26.0085 29.2066 25.7716 29.5031C25.5347 29.7995 25.1421 29.9478 24.7563 29.8898L20.9591 29.3548L18.7796 32.5257C18.563 32.848 18.1772 33.022 17.7778 32.9897C17.3785 32.9575 17.0333 32.7126 16.8776 32.3646Z" fill="#86ABFF"/>
</svg>
