<svg width="27" height="27" viewBox="0 0 27 27" fill="none" xmlns="http://www.w3.org/2000/svg">
<path d="M13.5 0C6.048 0 0 6.048 0 13.5C0 20.952 6.048 27 13.5 27C20.952 27 27 20.952 27 13.5C27 6.048 20.952 0 13.5 0ZM2.7 13.5C2.7 7.533 7.533 2.7 13.5 2.7C15.9975 2.7 18.2925 3.5505 20.115 4.9815L4.9815 20.115C3.49889 18.2292 2.69512 15.8988 2.7 13.5ZM13.5 24.3C11.0025 24.3 8.7075 23.4495 6.885 22.0185L22.0185 6.885C23.5011 8.77077 24.3049 11.1012 24.3 13.5C24.3 19.467 19.467 24.3 13.5 24.3Z" fill="#86ABFF"/>
</svg>
