<svg width="283" height="216" viewBox="0 0 283 216" fill="none" xmlns="http://www.w3.org/2000/svg">
<g clip-path="url(#clip0_883_3392)">
<path d="M263.854 186.201L264.337 175.342C269.38 172.652 275.005 171.23 280.723 171.202C272.853 177.625 273.837 190.006 268.501 198.643C266.816 201.325 264.549 203.593 261.867 205.28C259.184 206.968 256.156 208.031 253.006 208.391L246.42 212.416C245.517 207.387 245.716 202.223 247.004 197.278C248.293 192.333 250.64 187.726 253.883 183.774C255.725 181.574 257.837 179.616 260.169 177.943C261.746 182.095 263.854 186.201 263.854 186.201Z" fill="#F2F2F2"/>
<path d="M163.988 215.12C160.633 214.881 159.758 215.542 154.684 215.12H145.38L146.59 192.892L161.237 198.752L234.025 200.535L233.983 200.659C233.95 200.754 230.718 210.19 233.244 213.764L233.349 213.912L233.145 213.914L166.373 214.525C165.644 214.532 164.711 215.171 163.988 215.12Z" fill="#F2F2F2"/>
<path d="M167.763 215.41C161.283 214.95 154.574 217.464 148.974 214.626L144.498 214.896L144.485 214.859C144.45 214.756 142.336 198.146 146.61 191.706L146.799 191.423L146.946 192.948L145.536 213.639L148.66 212.598C156.246 216.162 165.267 213.808 173.95 213.775L233.036 213.557C234.274 213.553 235.305 214.398 235.338 215.44L235.341 215.542L171.332 215.537C170.138 215.537 168.948 215.494 167.763 215.41Z" fill="#CCCCCC"/>
<path d="M229.922 205.018L163.429 203.699L163.361 203.673L147.651 197.796L147.948 197.005L163.59 202.858L229.938 204.174L229.922 205.018Z" fill="#E6E6E6"/>
<path d="M229.567 208.572L163.074 207.253L163.006 207.228L147.296 201.35L147.593 200.559L163.236 206.412L229.584 207.728L229.567 208.572Z" fill="#E6E6E6"/>
<path d="M229.212 212.127L162.719 210.807L162.652 210.782L146.941 204.904L147.238 204.113L162.881 209.966L229.229 211.283L229.212 212.127Z" fill="#E6E6E6"/>
<path d="M168.222 200.765C162.057 200.349 156.046 198.656 150.573 195.793L145.964 193.353L146.084 192.147C146.118 191.97 146.216 191.811 146.359 191.702C146.503 191.593 146.682 191.54 146.862 191.555L147.269 191.56L209.279 192.471C213.338 192.521 217.359 193.25 221.177 194.627L234.688 199.523L234.681 199.594C234.567 200.731 233.419 201.609 232.067 201.594L170.985 200.879C170.061 200.868 169.14 200.83 168.222 200.765Z" fill="#E6E6E6"/>
<path d="M234.558 199.785L234.544 199.784L160.182 198.083L160.131 198.059L146.724 191.861L146.86 191.654L147.267 191.659L160.306 197.69L233.979 199.374L234.569 199.388L234.558 199.785Z" fill="#CCCCCC"/>
<path d="M176.748 192.093L175.804 192.079L154.493 191.765L153.483 191.751C158.352 196.926 169.119 198.22 184.9 196.216L176.748 192.093Z" fill="#CCCCCC"/>
<path d="M236.665 68.3148L237.965 71.3338L235.841 82.0551L214.164 79.0467L214.337 65.973L214.773 63.1097L236.665 68.3148Z" fill="#FFB6B6"/>
<path d="M247.864 207.267H243.082L240.806 188.853H247.864V207.267Z" fill="#FFB6B6"/>
<path d="M233.639 213.499C233.64 214.04 233.855 214.558 234.238 214.941C234.621 215.323 235.141 215.538 235.683 215.539H244.781L246.349 212.307L246.958 215.539H250.387L249.423 203.995L247.864 203.904L242.627 203.593L241.783 203.541V206.811L234.522 211.819C234.25 212.007 234.027 212.258 233.873 212.55C233.72 212.843 233.639 213.169 233.639 213.499Z" fill="#2F2E41"/>
<path d="M203.663 186.158H198.88L196.067 159.048L205.053 158.513L203.663 186.158Z" fill="#FFB6B6"/>
<path d="M189.437 192.39C189.438 192.931 189.653 193.449 190.036 193.832C190.419 194.214 190.939 194.429 191.48 194.43H200.579L202.147 191.198L202.756 194.43H206.185L205.221 182.886L203.83 182.805L198.502 182.484L197.581 182.431V185.701L190.32 190.709C190.048 190.897 189.825 191.149 189.671 191.441C189.518 191.734 189.437 192.06 189.437 192.39Z" fill="#2F2E41"/>
<path d="M249.894 191.388H249.876L248.956 161.447C249.551 160.301 249.853 159.026 249.835 157.735C249.817 156.444 249.48 155.178 248.853 154.049L248.721 153.811L249.063 152.231C249.501 150.201 249.3 148.086 248.487 146.175L247.629 118.246C250.694 98.414 236.086 85.4806 236.086 85.4806L237.428 75.0863L213.8 75.6224L214.202 85.4806L209.504 101.595C207.032 125.642 190.391 140.757 192.92 163.753C192.926 163.819 192.916 163.885 192.891 163.947C192.635 164.726 192.544 165.55 192.626 166.366C192.708 167.182 192.96 167.972 193.366 168.685C193.472 168.866 193.544 169.065 193.58 169.272C194.101 173.304 194.169 168.204 194.86 172.2L194.726 172.268C194.242 172.435 194.034 173.104 194.262 173.762C194.49 174.421 195.066 174.82 195.55 174.653L208.181 174.788C208.665 174.621 208.873 173.952 208.645 173.293C208.417 172.635 207.84 172.236 207.357 172.403L206.571 172.799L207.885 168.506L208.346 168.076C208.567 167.87 208.738 167.617 208.847 167.336C208.956 167.055 209 166.753 208.976 166.452C208.951 166.152 208.859 165.86 208.706 165.601C208.553 165.341 208.343 165.119 208.092 164.951L209.401 157.974L209.215 152.696L209.598 146.709L226.172 122.736L232.877 155.851L239.726 191.721C239.566 191.865 239.446 192.047 239.377 192.251C239.309 192.454 239.293 192.672 239.333 192.883C239.396 193.178 239.56 193.442 239.797 193.629C240.033 193.817 240.328 193.917 240.63 193.911H249.928C250.123 193.911 250.315 193.866 250.489 193.779C250.664 193.693 250.816 193.567 250.934 193.412C251.052 193.257 251.133 193.077 251.17 192.886C251.207 192.695 251.199 192.498 251.147 192.311C251.069 192.041 250.904 191.804 250.677 191.637C250.451 191.471 250.176 191.383 249.894 191.388Z" fill="#2F2E41"/>
<path d="M241.626 17.3686C241.626 19.2802 241.157 21.1628 240.259 22.851C239.361 24.5392 238.061 25.9815 236.474 27.0513C234.887 28.121 233.061 28.7856 231.157 28.9865C229.253 29.1874 227.328 28.9186 225.552 28.2037C223.776 27.4888 222.203 26.3496 220.972 24.8861C219.74 23.4227 218.886 21.6797 218.487 19.8102C218.087 17.9407 218.153 16.0019 218.679 14.1639C219.206 12.3259 220.176 10.6449 221.505 9.2686L221.561 9.21261C221.654 9.11447 221.748 9.01639 221.846 8.92293L221.848 8.92259L221.85 8.92158L221.851 8.92005L221.851 8.91825C221.985 8.82047 222.109 8.70935 222.221 8.58661C223.8 6.38363 225.59 4.53641 229.927 5.69044C236.172 7.35189 241.626 10.9176 241.626 17.3686Z" fill="#2F2E41"/>
<path d="M177.364 12.3693C177.338 12.9941 177.449 13.6171 177.69 14.1945C177.93 14.7718 178.295 15.2894 178.758 15.7109C179.221 16.1323 179.77 16.4473 180.368 16.6337C180.966 16.8201 181.598 16.8733 182.219 16.7896L212.388 41.5069L216.996 33.4212L185.892 11.6675C185.682 10.6356 185.1 9.71654 184.257 9.08432C183.413 8.4521 182.367 8.15069 181.316 8.23721C180.265 8.32372 179.282 8.79215 178.554 9.55372C177.825 10.3153 177.402 11.3171 177.364 12.3693Z" fill="#FFB6B6"/>
<path d="M225.127 48.7963C225.127 48.7963 225.118 47.9061 220.322 47.9403C214.369 47.9828 197.973 39.4506 199.407 31.4151C198.726 31.7223 197.962 31.7946 197.236 31.6206C196.509 31.4466 195.861 31.0363 195.394 30.4542L203.376 22.7825C205.881 22.9513 205.906 24.6245 205.692 25.5852L212.106 28.1298L228.814 37.7121L225.864 47.3373L225.127 48.7963Z" fill="#6C63FF"/>
<path d="M227.045 29.8633C232.463 29.8633 236.855 25.479 236.855 20.0706C236.855 14.6623 232.463 10.278 227.045 10.278C221.628 10.278 217.236 14.6623 217.236 20.0706C217.236 25.479 221.628 29.8633 227.045 29.8633Z" fill="#FFB7B7"/>
<path d="M213.563 68.7784C213.021 69.5004 212.745 70.3863 212.78 71.2877C212.815 72.1891 213.159 73.0511 213.755 73.729C213.76 74.0163 213.803 74.294 214.211 75.3234C214.264 75.4232 214.327 75.5178 214.398 75.6058C214.411 75.6274 214.425 75.6481 214.441 75.6681C214.87 76.2225 215.467 76.6238 216.143 76.8124L234.1 81.8157L236.474 82.4763L236.891 82.5913L237.121 79.3547C237.655 78.9129 238.013 78.2949 238.13 77.6125C238.247 76.9302 238.115 76.2285 237.759 75.6346L237.428 75.0888L239.356 69.9132L239.543 69.4009L244.459 56.1914L244.464 55.3104L244.474 54.4007L244.522 48.0521C244.524 46.0512 244.062 44.077 243.171 42.2844C242.281 40.4917 240.987 38.9294 239.39 37.72C237.935 36.6106 236.259 35.8268 234.474 35.4219L234.436 35.4171L232.493 32.8077L224.613 33.593L223.961 34.9287L223.17 36.5375L217.458 39.932L215.506 44.4612L214.187 47.5254C212.144 48.9905 210.925 50.8721 210.575 53.1128C209.827 57.8719 213.165 62.6358 213.563 63.1815L213.664 68.6444L213.563 68.7784Z" fill="#6C63FF"/>
<path d="M237.311 22.6379C237.222 22.6239 237.134 22.6052 237.045 22.5912C235.514 22.3202 233.984 22.054 232.459 21.7784L232.318 18.3263L230.47 21.4187C226.254 22.8154 222.309 22.026 218.599 20.2836C217.375 19.7035 216.187 19.0499 215.042 18.3263C214.665 12.4881 217.03 8.7506 221.43 9.14258C221.59 9.1569 221.706 8.99313 221.846 8.92299L221.848 8.92265L221.849 8.92164L221.85 8.92011L221.851 8.91831C222.089 8.80621 222.333 8.69878 222.576 8.6007C224.481 7.85751 226.558 7.6693 228.566 8.05794C230.574 8.44658 232.43 9.39612 233.919 10.7962C236.914 13.6504 238.261 18.3637 237.311 22.6379Z" fill="#2F2E41"/>
<path d="M237.045 22.5911C237.045 22.5911 234.139 11.7631 221.682 9.26389C221.668 9.25928 221.622 9.24057 221.561 9.21258C221.523 9.1892 221.477 9.16582 221.43 9.1425C221.57 9.06306 221.706 8.99304 221.846 8.9229L221.848 8.92257L221.85 8.92155L221.851 8.92002L221.851 8.91822C221.973 8.80612 222.094 8.69401 222.221 8.58659L222.576 8.60061C222.576 8.60061 235.075 6.62466 237.045 22.5911Z" fill="#FD6584"/>
<path d="M241.837 90.8485C241.606 91.0454 241.326 91.1751 241.026 91.2235C240.726 91.2719 240.419 91.2371 240.138 91.1229C239.579 90.8861 239.082 90.5234 238.687 90.0631C237.073 88.3734 235.92 86.2992 235.338 84.0383L235.876 83.0826C235.665 81.9041 235.864 80.6889 236.44 79.6387C237.016 78.5885 237.934 77.7665 239.042 77.3091C239.673 77.0421 240.372 76.9814 241.039 77.1357C241.37 77.2178 241.673 77.3875 241.915 77.6271C242.157 77.8666 242.33 78.167 242.415 78.4965C242.623 79.5188 241.77 80.4418 240.906 81.0288C239.401 82.0485 237.661 82.6699 235.849 82.8348C238.065 84.0815 239.981 85.7975 241.461 87.8622C241.803 88.2929 242.056 88.7876 242.203 89.3172C242.274 89.5828 242.278 89.8618 242.214 90.1292C242.15 90.3965 242.02 90.6437 241.837 90.8485Z" fill="#2F2E41"/>
<path d="M117.842 215.886H282.473C282.613 215.886 282.747 215.831 282.846 215.732C282.944 215.633 283 215.499 283 215.36C283 215.22 282.944 215.086 282.846 214.988C282.747 214.889 282.613 214.833 282.473 214.833H117.842C117.702 214.833 117.568 214.889 117.469 214.988C117.371 215.086 117.315 215.22 117.315 215.36C117.315 215.499 117.371 215.633 117.469 215.732C117.568 215.831 117.702 215.886 117.842 215.886Z" fill="#CCCCCC"/>
<path d="M161.565 80.5393V80.8143C160.972 80.1207 160.367 79.433 159.768 78.7453C159.516 78.4583 159.264 78.1713 159.013 77.8843C157.947 76.6763 156.874 75.4724 155.796 74.2724C154.712 73.0765 153.628 71.8805 152.531 70.6905C152.268 70.4035 152.004 70.1165 151.735 69.8295C151.519 69.5883 151.285 69.3643 151.034 69.1597C150.781 68.9495 150.49 68.7892 150.177 68.6872C149.817 68.5876 149.437 68.5835 149.075 68.6754C148.662 68.7711 148.267 68.9205 147.865 69.0461C147.452 69.1836 147.045 69.3152 146.631 69.4467C145.805 69.7158 144.984 69.985 144.157 70.254C144.147 70.2581 144.137 70.2601 144.126 70.26C144.115 70.26 144.105 70.2578 144.095 70.2536C144.085 70.2494 144.076 70.2433 144.068 70.2357C144.061 70.2281 144.055 70.219 144.051 70.2091L144.049 70.2061C144.045 70.1948 144.043 70.1826 144.043 70.1704C144.044 70.1581 144.047 70.1461 144.053 70.1353C144.058 70.1245 144.066 70.115 144.076 70.1076C144.086 70.1002 144.097 70.0951 144.109 70.0926C144.313 70.0268 144.523 69.961 144.732 69.8952C145.565 69.6201 146.392 69.3511 147.224 69.082C147.638 68.9444 148.051 68.8129 148.464 68.6813C148.848 68.536 149.252 68.4552 149.662 68.4421C150.331 68.4902 150.959 68.7842 151.423 69.2674C151.681 69.5066 151.915 69.7577 152.148 70.0148C152.424 70.3138 152.699 70.6128 152.975 70.9118C154.083 72.1198 155.183 73.3317 156.275 74.5475C157.372 75.7674 158.458 76.9893 159.534 78.2132C159.612 78.3029 159.69 78.3926 159.768 78.4823C160.373 79.1639 160.966 79.8517 161.565 80.5393Z" fill="white"/>
<path d="M150.941 70.2614C150.715 69.9704 150.413 69.7466 150.069 69.6143L149.728 69.6262C152.402 73.7793 155.904 77.3374 160.017 80.0784C156.992 76.806 153.966 73.5337 150.941 70.2614Z" fill="white"/>
<path d="M206.735 113.421L193.165 40.8862C192.933 39.6905 192.301 38.609 191.372 37.8191C190.443 37.0291 189.273 36.5776 188.054 36.5386C187.944 36.5361 187.835 36.5361 187.725 36.5386L178.48 36.8696L177.486 36.9061L172.872 37.0717L171.877 37.1057L168.909 37.2128L109.069 39.3575C108.979 39.3623 108.886 39.3623 108.796 39.3599L95.3864 39.08L90.4241 38.9777L90.2655 38.9753L86.6029 38.8974L54.6879 38.2352L46.2264 38.0575L42.0541 37.9723L41.0543 37.9504L36.2968 37.853L35.2995 37.8311L30.4322 37.7313L29.4349 37.7094L24.0873 37.5974L23.2484 37.5804L18.4787 37.4806L17.7252 37.466H17.6155C16.3493 37.4711 15.1256 37.923 14.1608 38.7418C13.1961 39.5606 12.5524 40.6935 12.3435 41.9402L0.0705423 117.209C-0.0540886 117.971 -0.0111797 118.752 0.196287 119.496C0.403754 120.24 0.77081 120.931 1.27205 121.519C1.7733 122.108 2.39673 122.581 3.09916 122.905C3.8016 123.229 4.56624 123.397 5.34012 123.397H75.8223C76.8597 123.4 77.8693 123.732 78.7047 124.346L80.0409 125.334C80.9619 126.011 82.0747 126.378 83.2183 126.381C96.831 122.795 111.143 122.795 124.756 126.381C125.457 126.383 126.153 126.246 126.801 125.978C127.449 125.709 128.038 125.315 128.533 124.818C129.379 123.974 130.508 123.472 131.703 123.409L201.766 119.723C202.525 119.684 203.268 119.483 203.943 119.133C204.619 118.784 205.212 118.294 205.682 117.697C206.153 117.101 206.49 116.41 206.672 115.673C206.854 114.935 206.875 114.168 206.735 113.421Z" fill="#CCCCCC"/>
<path d="M187.535 102.11C187.445 104.568 186.381 106.89 184.577 108.565C182.773 110.24 180.376 111.132 177.914 111.043C173.845 110.9 168.99 110.828 163.721 110.938C146.513 111.305 124.894 113.669 111.889 122.172C110.255 123.243 108.323 123.772 106.37 123.683C106.227 123.675 106.087 123.667 105.943 123.654C103.918 123.469 102.01 122.625 100.513 121.252C93.349 114.708 76.919 106.784 39.3097 106.226C39.1532 106.226 39.001 106.218 38.8487 106.209C37.6306 106.133 36.4395 105.817 35.3436 105.281C34.2476 104.745 33.2683 103.998 32.4616 103.084C31.6549 102.17 31.0366 101.105 30.642 99.9524C30.2475 98.7994 30.0844 97.5801 30.1622 96.3641L33.8584 37.8034L34.4124 29.0262L35.3851 13.6715C35.4832 12.1251 36.1673 10.6741 37.2984 9.6131C38.4296 8.55213 39.9229 7.96084 41.475 7.95935H41.5131L63.9188 8.09023C73.3581 8.51663 81.1763 9.71703 87.3733 11.6914C89.4901 12.3467 91.5495 13.1742 93.5308 14.1654C96.237 15.4752 98.6684 17.2877 100.695 19.506C101.957 20.9231 103.679 21.8513 105.558 22.1278C105.85 22.1712 106.144 22.198 106.438 22.208C108.171 22.2796 109.881 21.791 111.314 20.8148C125.951 11.0244 155.779 10.2814 172.251 10.7035C174.555 10.7572 176.756 11.665 178.426 13.25C180.096 14.8351 181.115 16.984 181.284 19.2781L181.953 28.013L182.617 36.7226L186.448 87.0593L187.514 101.063C187.54 101.411 187.547 101.761 187.535 102.11Z" fill="#F2F2F2"/>
<path d="M44.8839 28.5659C58.3861 24.2654 73.4497 25.404 86.2412 31.4624C89.8909 33.1821 93.3379 35.3015 96.5185 37.7815C97.4182 38.4864 98.6986 37.2255 97.7892 36.513C86.0404 27.416 71.2783 23.0945 56.4689 24.4167C52.3718 24.7827 48.3269 25.594 44.4061 26.836C43.3085 27.1856 43.7777 28.9182 44.8839 28.5659Z" fill="#3F3D56"/>
<path d="M119.182 38.4774C131.736 31.8904 146.768 30.454 160.417 34.1931C164.309 35.2565 168.069 36.7491 171.629 38.6434C172.649 39.1867 173.558 37.6386 172.536 37.0944C159.528 30.165 143.912 28.5698 129.707 32.4325C125.744 33.512 121.911 35.0195 118.275 36.9284C117.251 37.4657 118.158 39.0146 119.182 38.4774Z" fill="#3F3D56"/>
<path d="M119.182 50.437C131.736 43.85 146.768 42.4136 160.417 46.1527C164.309 47.2161 168.069 48.7087 171.629 50.603C172.649 51.1463 173.558 49.5983 172.536 49.054C159.528 42.1246 143.912 40.5294 129.707 44.3921C125.744 45.4716 121.911 46.9791 118.275 48.888C117.251 49.4253 118.158 50.9742 119.182 50.437Z" fill="#3F3D56"/>
<path d="M172.976 61.7551C172.986 61.6011 172.948 61.4478 172.869 61.3152C172.791 61.1826 172.673 61.0768 172.533 61.0115C162.112 55.5641 150.296 53.3547 138.607 54.6676C138.533 54.6735 138.466 54.6852 138.387 54.691H138.384C138.312 54.6975 138.24 54.7082 138.17 54.7233C131.217 55.522 124.472 57.5973 118.275 60.8447C118.14 60.925 118.028 61.039 117.951 61.1755C117.873 61.3121 117.832 61.4664 117.833 61.6234V83.9339C117.835 84.0711 117.868 84.2061 117.931 84.3286C117.993 84.4511 118.082 84.5578 118.192 84.6407C118.301 84.7236 118.428 84.7806 118.563 84.8072C118.698 84.8339 118.837 84.8295 118.97 84.7945C119.246 84.7155 119.522 84.6394 119.803 84.5662C126.068 82.8734 132.499 81.8692 138.982 81.5714C139.12 81.5655 139.258 81.5597 139.402 81.5538C144.682 81.3274 149.972 81.5173 155.223 82.1217C155.333 82.1279 155.442 82.1396 155.551 82.1568C155.821 82.1861 156.096 82.2183 156.366 82.2534C156.475 82.2651 156.577 82.2768 156.677 82.2944C157.727 82.4261 158.768 82.5754 159.812 82.7365C161.319 82.9765 162.827 83.2439 164.334 83.5386C164.428 83.5562 164.525 83.5796 164.621 83.5972C167.041 84.0773 169.448 84.6335 171.844 85.2483C171.978 85.2826 172.117 85.2863 172.252 85.259C172.387 85.2318 172.514 85.1742 172.624 85.0908C172.733 85.0074 172.823 84.9002 172.885 84.7774C172.947 84.6546 172.98 84.5193 172.982 84.3817V61.7902C172.983 61.7782 172.981 61.7661 172.976 61.7551Z" fill="#3F3D56"/>
<path d="M140.016 55.8842C139.357 55.5623 138.603 55.4961 137.898 55.6985C137.587 55.8149 137.302 55.992 137.06 56.2193C136.818 56.4466 136.623 56.7196 136.488 57.0225C136.244 57.6034 136.087 58.2172 136.024 58.8439C135.986 59.0904 135.984 59.4014 136.232 59.5165C136.322 59.5492 136.42 59.5566 136.514 59.538C136.608 59.5194 136.695 59.4755 136.766 59.4111C136.894 59.2849 136.999 59.1378 137.078 58.9761C137.509 58.3068 138.102 57.7566 138.802 57.3766C139.503 56.9965 140.287 56.7987 141.085 56.8015L141.748 57.0655C141.226 56.5962 140.643 56.1989 140.016 55.8842Z" fill="#FF6582"/>
<path d="M147.196 61.0264C146.681 60.2697 146.071 59.4619 145.116 59.2148C144.009 58.9287 142.873 59.4971 141.908 60.058C139.041 61.7247 136.265 63.5424 133.591 65.5031L133.594 65.5325L139.801 65.1522C141.295 65.0606 142.841 64.9564 144.162 64.3281C144.637 64.0313 145.167 63.8342 145.72 63.749C146.063 63.7676 146.399 63.8538 146.709 64.0028C147.019 64.1518 147.296 64.3605 147.525 64.6169C150.385 67.3234 151.212 71.4622 154.421 73.84C152.379 69.3729 149.962 65.0864 147.196 61.0264Z" fill="white"/>
<path d="M139.402 81.5534C139.259 81.5594 139.121 81.5653 138.983 81.5713C137.983 81.2126 136.959 80.8956 135.922 80.6205C135.251 80.4411 134.568 80.2797 133.886 80.1422C133.113 79.9748 132.334 79.8432 131.555 79.7295C130.073 79.5143 128.579 79.3885 127.081 79.3529C127.069 79.3541 127.058 79.3529 127.047 79.3494C127.036 79.3459 127.026 79.3402 127.018 79.3326C127.009 79.3249 127.002 79.3156 126.998 79.3052C126.993 79.2948 126.991 79.2835 126.991 79.2721C126.991 79.2607 126.993 79.2494 126.998 79.239C127.002 79.2286 127.009 79.2193 127.018 79.2117C127.026 79.2041 127.036 79.1983 127.047 79.1948C127.058 79.1913 127.069 79.1902 127.081 79.1914C127.272 79.1914 127.464 79.1974 127.65 79.2094C129.151 79.2647 130.647 79.4105 132.13 79.6459C132.903 79.7714 133.676 79.9209 134.443 80.0884C135.138 80.2439 135.832 80.4173 136.515 80.6086C137.492 80.8837 138.454 81.1986 139.402 81.5534Z" fill="white"/>
<path d="M156.678 82.2949C156.576 82.2769 156.474 82.265 156.367 82.2531C155.953 81.9123 155.534 81.5893 155.097 81.2724C154.552 80.8777 153.988 80.507 153.413 80.1601C152.14 79.3884 150.81 78.7128 149.436 78.139C147.263 77.2356 145.014 76.5272 142.715 76.0221C140.093 75.4486 137.438 75.0333 134.766 74.7783C132.094 74.5032 129.411 74.3358 126.727 74.1683C126.614 74.1623 126.608 73.995 126.727 74.0009C127.063 74.0248 127.398 74.0427 127.74 74.0667C130.453 74.2341 133.167 74.4255 135.862 74.7305C138.535 75.0165 141.186 75.4759 143.799 76.1058C146.03 76.6546 148.207 77.401 150.305 78.3363C151.511 78.8774 152.68 79.4987 153.803 80.196C154.515 80.6445 155.204 81.1229 155.863 81.6311C156.139 81.8464 156.414 82.0617 156.678 82.2949Z" fill="white"/>
<path d="M155.552 82.1574C155.443 82.1398 155.333 82.1278 155.223 82.1215C155.097 82.0198 154.965 81.9242 154.833 81.8285C153.911 81.1695 152.949 80.5684 151.952 80.0285C151.047 79.5374 150.117 79.0923 149.166 78.6951C146.994 77.7891 144.745 77.0806 142.446 76.5782C139.823 76.0047 137.169 75.5894 134.497 75.3345C131.825 75.0593 129.141 74.892 126.458 74.7245C126.344 74.7125 126.344 74.5511 126.458 74.557C126.799 74.581 127.135 74.5989 127.47 74.6228C130.184 74.7902 132.897 74.9816 135.593 75.2866C138.266 75.5725 140.917 76.032 143.53 76.662C145.761 77.2097 147.938 77.9562 150.035 78.8924C150.826 79.2512 151.598 79.6399 152.353 80.0645C153.472 80.6779 154.542 81.3777 155.552 82.1574Z" fill="white"/>
<path d="M164.621 83.5986C164.525 83.5806 164.429 83.5568 164.333 83.5388C164.226 83.4252 164.124 83.3056 164.022 83.1859C163.507 82.594 162.998 81.996 162.494 81.392C160.512 79.036 158.631 76.6081 156.858 74.1325C155.336 72.0157 153.893 69.8569 152.527 67.6564C151.874 66.6159 151.245 65.5634 150.628 64.499C150.149 63.6738 149.682 62.8466 149.226 62.0174C149.095 61.7782 148.969 61.539 148.843 61.2998C148.549 60.7376 148.256 60.1696 147.945 59.6135C147.606 58.9322 147.109 58.3416 146.495 57.8913C146.188 57.6862 145.833 57.5646 145.465 57.5385C144.945 57.5404 144.434 57.672 143.979 57.9212C140.628 59.4792 137.466 61.4153 134.557 63.6917C131.715 65.8983 129.145 68.4335 126.901 71.2442C126.829 71.328 126.673 71.2502 126.739 71.1605C127.009 70.8257 127.284 70.4908 127.56 70.1618C129.717 67.6155 132.145 65.3116 134.802 63.2911C134.808 63.2851 134.82 63.2791 134.826 63.2732C135.06 63.0878 135.293 62.9084 135.533 62.735C137.016 61.6444 138.56 60.6382 140.157 59.7211C140.972 59.2487 141.805 58.8002 142.655 58.3757C142.865 58.2681 143.08 58.1604 143.296 58.0587C143.512 57.9511 143.727 57.8495 143.943 57.7478C144.37 57.5305 144.837 57.4023 145.315 57.3711C146.98 57.3472 147.837 59.0215 148.43 60.1517C148.615 60.5045 148.807 60.8573 148.993 61.2101C149.712 62.5436 150.46 63.8712 151.239 65.1807C151.712 65.994 152.203 66.8013 152.701 67.6026C153.413 68.7448 154.144 69.8749 154.905 70.9992C154.905 70.9999 154.905 71.0007 154.905 71.0014C154.906 71.0021 154.906 71.0028 154.907 71.0033C154.907 71.0039 154.908 71.0043 154.909 71.0047C154.909 71.005 154.91 71.0051 154.911 71.0051C155.791 72.3326 156.708 73.6362 157.655 74.9339C159.278 77.1524 160.979 79.321 162.758 81.4399C163.369 82.1694 163.99 82.889 164.621 83.5986Z" fill="white"/>
<path d="M143.25 57.1888L143.084 57.2611C142.705 56.6213 142.173 56.085 141.536 55.6999C140.898 55.3148 140.176 55.0929 139.432 55.0537C136.98 54.8798 134.825 56.5113 134.629 58.6904C134.55 59.5877 134.81 60.4821 135.359 61.1973L135.205 61.288C134.634 60.5432 134.363 59.6118 134.445 58.6773C134.649 56.4082 136.893 54.7091 139.447 54.8902C140.221 54.9309 140.974 55.1621 141.637 55.5631C142.301 55.9641 142.855 56.5225 143.25 57.1888Z" fill="#FF6582"/>
<path d="M131.132 61.5975C130.488 61.318 129.787 61.1955 129.087 61.24C128.386 61.2845 127.707 61.4948 127.104 61.8534C129.305 62.1906 131.487 62.6431 133.64 63.2091C132.749 62.7447 132.051 62.0173 131.132 61.5975Z" fill="white"/>
<path d="M127.091 61.8514L126.849 62.0265C126.931 61.9652 127.016 61.9078 127.104 61.8534L127.091 61.8514Z" fill="white"/>
<path d="M134.39 62.8667C134.294 62.771 134.198 62.6753 134.101 62.5796C133.355 61.7696 132.457 61.1137 131.458 60.6492C130.949 60.4354 130.404 60.323 129.852 60.3184C129.282 60.3317 128.718 60.441 128.184 60.6416C127.933 60.7307 127.687 60.8319 127.446 60.9396C127.169 61.0632 126.898 61.195 126.628 61.3279C126.121 61.5772 125.62 61.8375 125.126 62.1088C124.143 62.6485 123.191 63.2294 122.27 63.8516C121.792 64.1742 121.325 64.5074 120.867 64.8512C120.441 65.1706 120.024 65.4985 119.615 65.835C119.528 65.9066 119.397 65.7907 119.485 65.719C119.592 65.6299 119.701 65.5413 119.81 65.4538C120.118 65.2066 120.43 64.9642 120.748 64.7265C121.327 64.2923 121.921 63.8749 122.53 63.4742C123.477 62.8508 124.457 62.2697 125.469 61.7309C125.975 61.4619 126.488 61.2041 127.008 60.9577C127.165 60.8833 127.324 60.8106 127.484 60.7417C127.851 60.5775 128.23 60.4406 128.617 60.3321C129.172 60.1732 129.753 60.1226 130.327 60.1828C130.877 60.2528 131.411 60.4169 131.905 60.6678C132.884 61.2158 133.768 61.9191 134.521 62.7502C134.6 62.8289 134.47 62.9454 134.39 62.8667Z" fill="white"/>
<path d="M44.8839 40.5255C58.3861 36.2251 73.4497 37.3636 86.2412 43.422C89.8909 45.1417 93.3379 47.2611 96.5185 49.7411C97.4182 50.446 98.6986 49.1851 97.7892 48.4726C86.0404 39.3756 71.2783 35.0541 56.4689 36.3763C52.3718 36.7423 48.3269 37.5536 44.4061 38.7956C43.3085 39.1452 43.7777 40.8779 44.8839 40.5255Z" fill="#3F3D56"/>
<path d="M44.8839 52.4852C58.3861 48.1848 73.4497 49.3233 86.2412 55.3818C89.8909 57.1014 93.3379 59.2208 96.5185 61.7008C97.4182 62.4057 98.6986 61.1448 97.7892 60.4323C86.0404 51.3353 71.2783 47.0138 56.4689 48.3361C52.3718 48.7021 48.3269 49.5133 44.4061 50.7554C43.3085 51.1049 43.7777 52.8376 44.8839 52.4852Z" fill="#3F3D56"/>
<path d="M44.8839 64.4448C58.3861 60.1444 73.4497 61.2829 86.2412 67.3413C89.8909 69.061 93.3379 71.1804 96.5185 73.6604C97.4182 74.3653 98.6986 73.1044 97.7892 72.3919C86.0404 63.2949 71.2783 58.9734 56.4689 60.2957C52.3718 60.6616 48.3269 61.4729 44.4061 62.715C43.3085 63.0645 43.7777 64.7972 44.8839 64.4448Z" fill="#3F3D56"/>
<path d="M44.8839 76.4045C58.3861 72.1041 73.4497 73.2426 86.2412 79.3011C89.8909 81.0207 93.3379 83.1401 96.5185 85.6201C97.4182 86.3251 98.6986 85.0641 97.7892 84.3516C86.0404 75.2546 71.2783 70.9331 56.4689 72.2554C52.3718 72.6214 48.3269 73.4326 44.4061 74.6747C43.3085 75.0242 43.7777 76.7569 44.8839 76.4045Z" fill="#3F3D56"/>
<path d="M44.8839 88.3641C58.3861 84.0637 73.4497 85.2022 86.2412 91.2606C89.8909 92.9803 93.3379 95.0997 96.5185 97.5797C97.4182 98.2847 98.6986 97.0237 97.7892 96.3112C86.0404 87.2142 71.2783 82.8927 56.4689 84.215C52.3718 84.581 48.3269 85.3922 44.4061 86.6343C43.3085 86.9838 43.7777 88.7165 44.8839 88.3641Z" fill="#3F3D56"/>
<path d="M93.5308 14.1654V42.8442C93.5308 43.4141 92.5328 43.8912 91.1879 44.022C91.1765 44.0214 91.165 44.0228 91.1541 44.0263C90.93 44.0432 90.6931 44.0558 90.4521 44.0558C89.7106 44.0694 88.9728 43.9493 88.2741 43.7012C88.2107 43.6759 88.1472 43.6463 88.0838 43.621C88.0246 43.5872 87.9611 43.5577 87.9019 43.5239C87.5678 43.3255 87.3733 43.0933 87.3733 42.8442V11.6914C89.4901 12.3467 91.5495 13.1741 93.5308 14.1654Z" fill="#6C63FF"/>
<path d="M106.437 20.817H105.557V123.084H106.437V20.817Z" fill="#E6E6E6"/>
<path d="M202.108 90.8258C202.732 90.7688 203.336 90.576 203.877 90.2609C204.418 89.9458 204.884 89.5161 205.24 89.0021C205.597 88.488 205.837 87.9021 205.942 87.2857C206.047 86.6692 206.016 86.0372 205.85 85.4341L224.111 76.9249L235.104 59.1725L226.463 55.6898L219.047 69.9952L200.276 82.4821C199.28 82.8272 198.445 83.5251 197.929 84.4438C197.414 85.3624 197.254 86.4379 197.48 87.4663C197.706 88.4948 198.302 89.4048 199.155 90.024C200.008 90.6432 201.059 90.9284 202.108 90.8258Z" fill="#FFB6B6"/>
<path d="M241.885 42.1663C241.885 42.1663 244.037 42.8675 241.675 47.0346C239.784 50.3706 230.573 69.5865 226.813 73.3595C227.209 73.9923 227.382 74.7385 227.306 75.4805C227.23 76.2226 226.909 76.9183 226.394 77.458L217.714 70.5825C217.548 68.0818 219.206 67.8337 220.189 67.9181L222.185 60.8535L229.15 43.4264L240.339 41.6318L241.885 42.1663Z" fill="#6C63FF"/>
<path d="M242.073 9.50254C242.483 7.84623 245.46 6.62326 240.36 4.31085C239.123 3.74964 239.174 1.81699 238.127 0.951471C237.08 0.085957 235.547 -0.315306 234.33 0.289655C233.244 0.829882 232.632 2.05244 232.501 3.25722C232.439 4.46979 232.579 5.6843 232.916 6.85086L232.817 6.99505C234.837 8.53816 236.857 10.0813 238.877 11.6243C239.62 12.1914 240.59 12.7851 241.422 12.3596C242.364 11.878 241.819 10.528 242.073 9.50254Z" fill="#2F2E41"/>
</g>
<defs>
<clipPath id="clip0_883_3392">
<rect width="283" height="216" fill="white"/>
</clipPath>
</defs>
</svg>
