<svg width="27" height="27" viewBox="0 0 27 27" fill="none" xmlns="http://www.w3.org/2000/svg">
<path d="M25.4776 12.94C24.3591 7.88326 22.6758 5.18432 20.1788 4.44709C19.654 4.29313 19.1095 4.21621 18.5625 4.21875C17.8395 4.21875 17.2099 4.39488 16.5438 4.58156C15.7412 4.80674 14.8294 5.0625 13.5 5.0625C12.1706 5.0625 11.2583 4.80727 10.4541 4.58209C9.78752 4.39488 9.1584 4.21875 8.43752 4.21875C7.8719 4.21679 7.30876 4.29346 6.76426 4.44656C4.28047 5.18062 2.59824 7.87852 1.4634 12.9368C0.243122 18.38 0.843767 21.8167 3.14773 22.6141C3.46355 22.7254 3.79584 22.7828 4.1307 22.7839C5.70904 22.7839 6.97467 21.4692 7.83951 20.3929C8.81668 19.1747 9.96049 18.5567 13.5 18.5567C16.6614 18.5567 17.9698 18.9854 19.0999 20.3929C19.8102 21.2778 20.4815 21.8969 21.1512 22.2866C22.0419 22.8045 22.9321 22.9194 23.7964 22.6225C25.158 22.1579 25.9385 20.9297 26.1167 18.9712C26.2522 17.4693 26.0434 15.4965 25.4776 12.94ZM10.9688 12.6562H9.28127V14.3437C9.28127 14.5675 9.19237 14.7821 9.03414 14.9404C8.8759 15.0986 8.66129 15.1875 8.43752 15.1875C8.21374 15.1875 7.99913 15.0986 7.8409 14.9404C7.68266 14.7821 7.59377 14.5675 7.59377 14.3437V12.6562H5.90627C5.68249 12.6562 5.46788 12.5674 5.30965 12.4091C5.15141 12.2509 5.06252 12.0363 5.06252 11.8125C5.06252 11.5887 5.15141 11.3741 5.30965 11.2159C5.46788 11.0576 5.68249 10.9687 5.90627 10.9687H7.59377V9.28125C7.59377 9.05747 7.68266 8.84286 7.8409 8.68463C7.99913 8.52639 8.21374 8.4375 8.43752 8.4375C8.66129 8.4375 8.8759 8.52639 9.03414 8.68463C9.19237 8.84286 9.28127 9.05747 9.28127 9.28125V10.9687H10.9688C11.1925 10.9687 11.4072 11.0576 11.5654 11.2159C11.7236 11.3741 11.8125 11.5887 11.8125 11.8125C11.8125 12.0363 11.7236 12.2509 11.5654 12.4091C11.4072 12.5674 11.1925 12.6562 10.9688 12.6562ZM15.3985 12.8672C15.1899 12.8672 14.9859 12.8053 14.8125 12.6894C14.6391 12.5735 14.5039 12.4088 14.4241 12.2161C14.3442 12.0234 14.3233 11.8113 14.364 11.6067C14.4047 11.4022 14.5052 11.2142 14.6527 11.0667C14.8002 10.9192 14.9881 10.8188 15.1927 10.7781C15.3973 10.7374 15.6093 10.7583 15.8021 10.8381C15.9948 10.9179 16.1595 11.0531 16.2754 11.2265C16.3913 11.4 16.4531 11.6039 16.4531 11.8125C16.4531 12.0922 16.342 12.3605 16.1442 12.5583C15.9464 12.7561 15.6782 12.8672 15.3985 12.8672ZM17.7188 15.1875C17.5101 15.1875 17.306 15.1256 17.1325 15.0096C16.959 14.8936 16.8239 14.7287 16.7441 14.5358C16.6644 14.3429 16.6436 14.1307 16.6845 13.9261C16.7255 13.7214 16.8262 13.5335 16.9739 13.3861C17.1217 13.2387 17.3099 13.1385 17.5146 13.0981C17.7194 13.0577 17.9315 13.0789 18.1242 13.1592C18.3169 13.2394 18.4814 13.375 18.597 13.5488C18.7126 13.7226 18.774 13.9267 18.7735 14.1354C18.7728 14.4147 18.6613 14.6823 18.4636 14.8795C18.2659 15.0767 17.998 15.1875 17.7188 15.1875ZM17.7188 10.5469C17.5102 10.5469 17.3063 10.485 17.1328 10.3691C16.9594 10.2532 16.8242 10.0885 16.7444 9.8958C16.6645 9.70308 16.6437 9.49102 16.6843 9.28643C16.725 9.08184 16.8255 8.89391 16.973 8.74641C17.1205 8.59891 17.3084 8.49846 17.513 8.45777C17.7176 8.41707 17.9297 8.43796 18.1224 8.51778C18.3151 8.59761 18.4798 8.73279 18.5957 8.90623C18.7116 9.07968 18.7735 9.28359 18.7735 9.49219C18.7735 9.77191 18.6623 10.0402 18.4645 10.238C18.2668 10.4358 17.9985 10.5469 17.7188 10.5469ZM20.0391 12.8672C19.8305 12.8672 19.6266 12.8053 19.4531 12.6894C19.2797 12.5735 19.1445 12.4088 19.0647 12.2161C18.9848 12.0234 18.964 11.8113 19.0047 11.6067C19.0454 11.4022 19.1458 11.2142 19.2933 11.0667C19.4408 10.9192 19.6287 10.8188 19.8333 10.7781C20.0379 10.7374 20.25 10.7583 20.4427 10.8381C20.6354 10.9179 20.8001 11.0531 20.916 11.2265C21.0319 11.4 21.0938 11.6039 21.0938 11.8125C21.0938 12.0922 20.9826 12.3605 20.7849 12.5583C20.5871 12.7561 20.3188 12.8672 20.0391 12.8672Z" fill="#86ABFF"/>
</svg>
