<svg width="338" height="255" viewBox="0 0 338 255" fill="none" xmlns="http://www.w3.org/2000/svg">
<g clip-path="url(#clip0_839_2284)">
<path d="M158.837 214.067C158.837 214.067 163.139 207.021 168.662 211.187C174.185 215.353 184.413 222.382 184.413 222.382C184.413 222.382 186.508 226.878 181.086 225.189C175.663 223.5 157.963 220.783 157.963 220.783L158.837 214.067Z" fill="#FEB8B8"/>
<path d="M38.6152 169.32C39.9861 158.314 46.8178 147.471 57.3309 143.89C53.1848 155.217 53.1857 167.643 57.3334 178.97C58.9489 183.333 61.2007 188.017 59.6811 192.413C58.7357 195.149 56.4228 197.242 53.8374 198.551C51.2519 199.86 48.3825 200.483 45.549 201.095L44.9914 201.555C40.4933 191.415 37.2443 180.325 38.6152 169.32Z" fill="#F0F0F0"/>
<path d="M57.4352 144.098C51.3129 150.946 47.5077 159.547 46.5601 168.677C46.3211 170.639 46.3935 172.626 46.7744 174.566C47.2066 176.443 48.1345 178.17 49.4616 179.569C50.6728 180.897 52.0659 182.116 52.9325 183.715C53.3639 184.541 53.6158 185.448 53.6715 186.377C53.7272 187.306 53.5855 188.236 53.2557 189.107C52.4906 191.298 50.9825 193.084 49.447 194.779C47.7421 196.661 45.9413 198.589 45.2166 201.084C45.1288 201.387 44.664 201.233 44.7517 200.931C46.0126 196.59 50.2339 194.124 52.247 190.214C53.1864 188.389 53.5806 186.271 52.7 184.345C51.9299 182.661 50.4945 181.403 49.2565 180.068C47.9418 178.723 46.977 177.077 46.4464 175.274C45.9678 173.36 45.8189 171.379 46.0061 169.415C46.3569 164.988 47.4029 160.643 49.1057 156.539C51.0231 151.846 53.7307 147.514 57.1112 143.732C57.3206 143.498 57.6432 143.866 57.4352 144.098Z" fill="white"/>
<path d="M46.6918 165.719C45.179 165.352 43.8459 164.461 42.9308 163.204C42.0156 161.946 41.5779 160.405 41.6959 158.855C41.7208 158.542 42.21 158.566 42.185 158.88C42.0725 160.323 42.4803 161.758 43.3349 162.927C44.1895 164.096 45.4345 164.922 46.8453 165.255C47.1518 165.328 46.9965 165.791 46.6918 165.719Z" fill="white"/>
<path d="M48.7586 178.976C51.491 177.347 53.5081 174.75 54.4076 171.702C54.4965 171.4 54.9613 171.554 54.8726 171.856C53.9305 175.025 51.8259 177.724 48.9788 179.412C48.7073 179.573 48.4886 179.136 48.7586 178.976Z" fill="white"/>
<path d="M51.4773 152.309C52.033 152.572 52.6456 152.694 53.2601 152.663C53.8746 152.632 54.4718 152.449 54.9979 152.13C55.2672 151.966 55.4857 152.404 55.2181 152.567C54.6352 152.916 53.9755 153.117 53.2966 153.153C52.6177 153.189 51.9404 153.058 51.3238 152.773C51.2634 152.751 51.2137 152.706 51.1848 152.649C51.1558 152.592 51.1499 152.526 51.1681 152.464C51.1887 152.403 51.2327 152.352 51.2906 152.323C51.3485 152.294 51.4156 152.289 51.4773 152.309Z" fill="white"/>
<path d="M89.3762 163.546C89.2109 163.654 89.0457 163.761 88.8802 163.872C86.6662 165.326 84.574 166.956 82.6245 168.748C82.4716 168.884 82.3186 169.024 82.1699 169.165C77.5191 173.531 73.7208 178.722 70.9681 184.473C69.8748 186.762 68.9576 189.132 68.2243 191.56C67.2119 194.914 66.3814 198.63 64.3774 201.374C64.1715 201.662 63.948 201.938 63.708 202.199H45.5972C45.5561 202.178 45.5147 202.161 45.4733 202.141L44.7502 202.174C44.7793 202.046 44.8122 201.914 44.8412 201.786C44.8578 201.712 44.8784 201.638 44.8949 201.563C44.9072 201.514 44.9197 201.464 44.928 201.419C44.932 201.402 44.9363 201.386 44.9403 201.374C44.9486 201.328 44.9611 201.287 44.9694 201.246C45.1511 200.507 45.3384 199.769 45.5313 199.031C45.5313 199.026 45.5313 199.026 45.5353 199.022C47.0188 193.4 48.9856 187.851 51.7333 182.778C51.8161 182.625 51.8986 182.468 51.9896 182.316C53.2408 180.035 54.6767 177.861 56.2828 175.814C57.1659 174.697 58.105 173.624 59.0967 172.601C61.6642 169.962 64.6314 167.744 67.8896 166.026C74.3852 162.602 81.9054 161.29 88.8473 163.381C89.0249 163.435 89.1986 163.489 89.3762 163.546Z" fill="#F0F0F0"/>
<path d="M89.3353 163.776C80.3168 165.564 72.092 170.144 65.8291 176.864C64.4552 178.287 63.3144 179.917 62.4489 181.695C61.6618 183.453 61.3609 185.39 61.5773 187.304C61.7432 189.093 62.1203 190.904 61.8478 192.702C61.6946 193.62 61.3487 194.495 60.8328 195.271C60.3169 196.046 59.6426 196.704 58.8542 197.201C56.922 198.49 54.6409 199.01 52.3926 199.44C49.8962 199.918 47.2957 200.375 45.2122 201.932C44.9598 202.121 44.6814 201.719 44.9334 201.53C48.5583 198.822 53.4159 199.39 57.3814 197.478C59.2318 196.586 60.824 195.132 61.2824 193.065C61.6833 191.257 61.2959 189.39 61.1123 187.58C60.8738 185.716 61.0961 183.822 61.7598 182.063C62.5319 180.247 63.6078 178.576 64.9416 177.121C67.8919 173.796 71.3474 170.956 75.1816 168.703C79.5433 166.108 84.3175 164.276 89.2977 163.288C89.6059 163.227 89.6415 163.715 89.3353 163.776Z" fill="white"/>
<path d="M67.7184 174.581C66.7316 173.379 66.2049 171.866 66.2325 170.312C66.26 168.758 66.84 167.265 67.8688 166.098C68.0777 165.863 68.4538 166.176 68.2446 166.412C67.2846 167.496 66.7445 168.888 66.7218 170.335C66.6991 171.782 67.1953 173.189 68.1208 174.303C68.3217 174.545 67.918 174.822 67.7184 174.581Z" fill="white"/>
<path d="M61.3736 186.408C64.5375 186.75 67.7143 185.889 70.2704 183.996C70.5235 183.809 70.802 184.211 70.5492 184.398C67.8855 186.363 64.5778 187.252 61.2861 186.889C60.9724 186.855 61.0616 186.374 61.3736 186.408Z" fill="white"/>
<path d="M79.6268 166.75C79.9116 167.295 80.3273 167.76 80.8367 168.105C81.3462 168.449 81.9333 168.662 82.5455 168.724C82.8595 168.755 82.77 169.236 82.458 169.205C81.782 169.133 81.1338 168.898 80.5701 168.518C80.0065 168.139 79.5444 167.627 79.2244 167.029C79.1895 166.975 79.1764 166.91 79.1879 166.846C79.1994 166.783 79.2345 166.727 79.2862 166.689C79.3397 166.652 79.4055 166.638 79.4692 166.65C79.533 166.661 79.5896 166.697 79.6268 166.75Z" fill="white"/>
<path d="M184.679 242.258C185.21 237.993 187.858 233.79 191.932 232.402C190.326 236.792 190.326 241.608 191.933 245.998C192.559 247.688 193.432 249.504 192.843 251.208C192.421 252.261 191.611 253.112 190.578 253.586C189.554 254.051 188.475 254.382 187.366 254.572L187.15 254.751C185.407 250.821 184.148 246.523 184.679 242.258Z" fill="#F0F0F0"/>
<path d="M191.973 232.483C189.6 235.137 188.126 238.47 187.758 242.009C187.666 242.769 187.694 243.539 187.841 244.291C188.009 245.018 188.368 245.688 188.883 246.23C189.395 246.709 189.846 247.249 190.228 247.837C190.395 248.157 190.493 248.508 190.514 248.868C190.536 249.228 190.481 249.589 190.353 249.926C190.014 250.75 189.512 251.498 188.877 252.125C188.216 252.854 187.519 253.601 187.238 254.568C187.204 254.685 187.023 254.626 187.057 254.509C187.546 252.826 189.182 251.871 189.962 250.355C190.163 250.015 190.284 249.633 190.314 249.238C190.345 248.844 190.284 248.448 190.138 248.081C189.784 247.461 189.334 246.901 188.803 246.423C188.294 245.902 187.92 245.264 187.714 244.565C187.529 243.824 187.471 243.056 187.544 242.295C187.68 240.579 188.085 238.895 188.745 237.305C189.488 235.486 190.537 233.807 191.847 232.341C191.929 232.25 192.054 232.393 191.973 232.483Z" fill="white"/>
<path d="M187.809 240.862C187.223 240.72 186.706 240.375 186.352 239.887C185.997 239.4 185.827 238.803 185.873 238.202C185.883 238.081 186.072 238.09 186.063 238.212C186.019 238.771 186.177 239.327 186.508 239.78C186.839 240.233 187.322 240.553 187.869 240.682C187.987 240.711 187.927 240.89 187.809 240.862Z" fill="white"/>
<path d="M188.61 246C189.669 245.369 190.451 244.362 190.8 243.181C190.834 243.064 191.014 243.124 190.98 243.241C190.615 244.469 189.799 245.515 188.696 246.169C188.59 246.231 188.506 246.062 188.61 246Z" fill="white"/>
<path d="M189.664 235.665C189.879 235.767 190.117 235.814 190.355 235.802C190.593 235.79 190.824 235.719 191.028 235.596C191.133 235.532 191.217 235.702 191.114 235.765C190.888 235.9 190.632 235.978 190.369 235.992C190.106 236.006 189.843 235.956 189.604 235.845C189.581 235.836 189.562 235.819 189.551 235.797C189.539 235.775 189.537 235.749 189.544 235.725C189.552 235.701 189.569 235.682 189.592 235.671C189.614 235.659 189.64 235.657 189.664 235.665Z" fill="white"/>
<path d="M204.352 240.02C204.288 240.062 204.224 240.103 204.16 240.146C203.302 240.71 202.491 241.342 201.735 242.036C201.676 242.089 201.617 242.143 201.559 242.198C199.757 243.89 198.285 245.902 197.218 248.13C196.794 249.018 196.439 249.936 196.154 250.877C195.762 252.177 195.44 253.617 194.663 254.68C194.584 254.792 194.497 254.899 194.404 255H187.385C187.369 254.992 187.353 254.986 187.337 254.978L187.057 254.99C187.068 254.941 187.081 254.89 187.092 254.84C187.099 254.811 187.107 254.782 187.113 254.754C187.118 254.735 187.123 254.715 187.126 254.698C187.127 254.691 187.129 254.685 187.131 254.68C187.134 254.663 187.139 254.647 187.142 254.631C187.212 254.344 187.285 254.058 187.36 253.772L187.361 253.769C187.91 251.583 188.716 249.47 189.763 247.473C189.795 247.414 189.827 247.353 189.862 247.294C190.347 246.411 190.904 245.568 191.526 244.775C191.869 244.341 192.233 243.926 192.617 243.529C193.612 242.507 194.762 241.647 196.025 240.981C198.542 239.654 201.456 239.146 204.147 239.956C204.216 239.977 204.283 239.998 204.352 240.02Z" fill="#F0F0F0"/>
<path d="M204.336 240.109C200.841 240.802 197.653 242.577 195.226 245.182C194.694 245.733 194.251 246.365 193.916 247.054C193.611 247.735 193.494 248.486 193.578 249.228C193.698 249.918 193.733 250.621 193.683 251.319C193.624 251.675 193.49 252.015 193.29 252.315C193.09 252.616 192.828 252.871 192.523 253.063C191.755 253.517 190.903 253.812 190.019 253.931C189.051 254.116 188.043 254.293 187.236 254.897C187.138 254.97 187.03 254.814 187.128 254.741C188.533 253.691 190.415 253.912 191.952 253.171C192.318 253.019 192.645 252.787 192.907 252.49C193.169 252.194 193.359 251.841 193.464 251.46C193.555 250.753 193.533 250.035 193.398 249.334C193.306 248.612 193.392 247.878 193.649 247.196C193.948 246.493 194.365 245.845 194.882 245.281C196.025 243.993 197.365 242.892 198.851 242.019C200.541 241.013 202.391 240.303 204.321 239.92C204.441 239.897 204.455 240.086 204.336 240.109Z" fill="white"/>
<path d="M195.958 244.297C195.576 243.831 195.372 243.245 195.382 242.642C195.393 242.04 195.618 241.461 196.016 241.009C196.097 240.918 196.243 241.039 196.162 241.131C195.79 241.551 195.581 242.09 195.572 242.651C195.563 243.212 195.755 243.757 196.114 244.189C196.192 244.283 196.035 244.39 195.958 244.297Z" fill="white"/>
<path d="M193.499 248.881C194.726 249.013 195.957 248.679 196.947 247.946C197.045 247.873 197.153 248.029 197.055 248.101C196.023 248.863 194.741 249.208 193.465 249.067C193.344 249.053 193.378 248.867 193.499 248.881Z" fill="white"/>
<path d="M200.573 241.262C200.684 241.473 200.845 241.653 201.042 241.787C201.24 241.92 201.467 242.003 201.704 242.027C201.826 242.039 201.791 242.225 201.671 242.213C201.409 242.185 201.157 242.094 200.939 241.947C200.72 241.8 200.541 241.602 200.417 241.37C200.404 241.349 200.399 241.324 200.403 241.299C200.408 241.275 200.421 241.253 200.441 241.238C200.462 241.224 200.487 241.218 200.512 241.223C200.537 241.227 200.559 241.241 200.573 241.262Z" fill="white"/>
<path d="M305.269 151.662C303.162 134.747 292.662 118.08 276.503 112.576C282.875 129.986 282.874 149.086 276.499 166.495C274.016 173.201 270.555 180.4 272.89 187.158C274.343 191.363 277.898 194.58 281.872 196.592C285.846 198.604 290.257 199.562 294.612 200.502L295.469 201.21C302.383 185.624 307.377 168.577 305.269 151.662Z" fill="#F0F0F0"/>
<path d="M276.342 112.895C285.752 123.422 291.601 136.64 293.058 150.674C293.351 153.683 293.387 156.76 292.728 159.725C292.064 162.611 290.638 165.266 288.598 167.415C286.736 169.457 284.595 171.331 283.263 173.789C281.859 176.38 281.805 179.324 282.766 182.076C283.942 185.444 286.26 188.189 288.62 190.794C291.241 193.687 294.009 196.651 295.123 200.486C295.258 200.951 295.972 200.714 295.837 200.25C293.899 193.578 287.411 189.787 284.317 183.777C282.873 180.973 282.267 177.717 283.62 174.757C284.804 172.168 287.01 170.234 288.913 168.183C290.911 166.029 292.443 163.666 293.233 160.814C294.04 157.897 294.125 154.812 293.909 151.809C293.37 145.003 291.762 138.325 289.145 132.018C286.198 124.804 282.036 118.145 276.84 112.332C276.518 111.972 276.023 112.538 276.342 112.895Z" fill="white"/>
<path d="M292.855 146.128C295.18 145.564 297.229 144.194 298.636 142.261C300.043 140.329 300.715 137.96 300.534 135.578C300.496 135.096 299.744 135.133 299.782 135.616C299.955 137.833 299.328 140.04 298.015 141.837C296.701 143.634 294.788 144.903 292.619 145.415C292.148 145.526 292.387 146.239 292.855 146.128Z" fill="white"/>
<path d="M289.679 166.504C285.479 164.001 282.378 160.009 280.996 155.325C280.859 154.86 280.145 155.096 280.281 155.56C281.729 160.432 284.964 164.579 289.34 167.175C289.757 167.422 290.094 166.75 289.679 166.504Z" fill="white"/>
<path d="M285.5 125.515C284.645 125.92 283.704 126.108 282.759 126.06C281.815 126.012 280.897 125.73 280.088 125.241C279.674 124.989 279.338 125.661 279.75 125.912C280.646 126.449 281.66 126.758 282.703 126.813C283.747 126.868 284.788 126.668 285.736 126.229C285.828 126.195 285.905 126.127 285.949 126.039C285.994 125.95 286.003 125.849 285.975 125.754C285.943 125.66 285.875 125.582 285.786 125.537C285.697 125.492 285.594 125.484 285.5 125.515Z" fill="white"/>
<path d="M227.247 142.788C227.501 142.953 227.755 143.118 228.01 143.289C231.413 145.523 234.628 148.03 237.625 150.784C237.86 150.993 238.095 151.208 238.324 151.424C245.472 158.136 251.31 166.114 255.541 174.954C257.222 178.473 258.632 182.114 259.759 185.847C261.315 191.001 262.591 196.714 265.672 200.931C265.988 201.374 266.332 201.798 266.701 202.199H294.538C294.601 202.167 294.664 202.142 294.728 202.11L295.839 202.161C295.795 201.964 295.744 201.761 295.7 201.565C295.674 201.45 295.643 201.336 295.617 201.222C295.598 201.146 295.579 201.07 295.566 201C295.56 200.975 295.554 200.95 295.547 200.931C295.535 200.861 295.515 200.797 295.503 200.734C295.223 199.599 294.935 198.464 294.639 197.329C294.639 197.323 294.639 197.323 294.633 197.316C292.353 188.674 289.33 180.146 285.106 172.348C284.979 172.113 284.852 171.872 284.712 171.637C282.789 168.133 280.582 164.791 278.113 161.645C276.756 159.927 275.313 158.278 273.788 156.706C269.842 152.65 265.281 149.24 260.273 146.599C250.289 141.336 238.73 139.32 228.06 142.535C227.787 142.617 227.52 142.699 227.247 142.788Z" fill="#F0F0F0"/>
<path d="M227.31 143.141C241.172 145.889 253.814 152.928 263.44 163.258C265.489 165.484 267.373 167.919 268.636 170.683C269.845 173.386 270.308 176.363 269.975 179.306C269.72 182.055 269.141 184.838 269.56 187.601C270.001 190.514 271.734 192.897 274.161 194.517C277.131 196.499 280.637 197.297 284.093 197.959C287.93 198.694 291.927 199.396 295.129 201.789C295.517 202.079 295.945 201.461 295.558 201.171C289.986 197.008 282.52 197.882 276.425 194.943C273.58 193.572 271.133 191.336 270.429 188.159C269.812 185.381 270.408 182.511 270.69 179.729C270.986 176.808 270.784 174 269.695 171.249C268.58 168.435 266.787 165.92 264.804 163.652C260.269 158.543 254.958 154.177 249.065 150.714C242.361 146.725 235.023 143.91 227.368 142.392C226.894 142.298 226.839 143.048 227.31 143.141Z" fill="white"/>
<path d="M260.536 159.75C262.053 157.902 262.863 155.576 262.82 153.188C262.778 150.799 261.887 148.504 260.305 146.711C259.984 146.349 259.406 146.831 259.728 147.193C261.203 148.86 262.033 150.998 262.068 153.222C262.103 155.447 261.34 157.61 259.918 159.322C259.609 159.695 260.23 160.12 260.536 159.75Z" fill="white"/>
<path d="M270.288 177.929C265.425 178.454 260.543 177.13 256.614 174.221C256.225 173.933 255.797 174.551 256.185 174.839C260.279 177.858 265.363 179.226 270.423 178.668C270.905 178.614 270.768 177.875 270.288 177.929Z" fill="white"/>
<path d="M242.233 147.713C241.795 148.55 241.156 149.265 240.373 149.795C239.59 150.324 238.687 150.651 237.746 150.747C237.264 150.794 237.401 151.533 237.881 151.486C238.92 151.376 239.916 151.013 240.783 150.43C241.649 149.847 242.359 149.061 242.851 148.141C242.905 148.058 242.925 147.958 242.907 147.861C242.89 147.764 242.836 147.677 242.756 147.618C242.674 147.562 242.573 147.54 242.475 147.558C242.377 147.576 242.29 147.632 242.233 147.713Z" fill="white"/>
<path d="M337.722 202.611H0.413203C0.303615 202.611 0.198515 202.568 0.121024 202.49C0.0435334 202.413 0 202.308 0 202.199C0 202.089 0.0435334 201.984 0.121024 201.907C0.198515 201.83 0.303615 201.786 0.413203 201.786H337.587C337.696 201.786 337.801 201.83 337.879 201.907C337.956 201.984 338 202.089 338 202.199C338 202.426 337.95 202.611 337.722 202.611Z" fill="#CACACA"/>
<path d="M118.311 238.912H43.7994C43.6898 238.912 43.5848 238.869 43.5073 238.791C43.4298 238.714 43.3862 238.609 43.3862 238.5C43.3862 238.39 43.4298 238.285 43.5073 238.208C43.5848 238.131 43.6898 238.087 43.7994 238.087H118.176C118.286 238.087 118.391 238.131 118.468 238.208C118.546 238.285 118.589 238.39 118.589 238.5C118.589 238.727 118.539 238.912 118.311 238.912Z" fill="#CACACA"/>
<path d="M235.248 255H160.736C160.626 255 160.521 254.957 160.444 254.879C160.366 254.802 160.323 254.697 160.323 254.587C160.323 254.478 160.366 254.373 160.444 254.296C160.521 254.218 160.626 254.175 160.736 254.175H235.112C235.222 254.175 235.327 254.218 235.405 254.296C235.482 254.373 235.526 254.478 235.526 254.587C235.526 254.815 235.476 255 235.248 255Z" fill="#CACACA"/>
<path d="M305.492 238.5H230.98C230.871 238.5 230.766 238.456 230.688 238.379C230.611 238.301 230.567 238.196 230.567 238.087C230.567 237.978 230.611 237.873 230.688 237.795C230.766 237.718 230.871 237.675 230.98 237.675H305.357C305.466 237.675 305.572 237.718 305.649 237.795C305.727 237.873 305.77 237.978 305.77 238.087C305.77 238.315 305.72 238.5 305.492 238.5Z" fill="#CACACA"/>
<path d="M137.703 222.824C133.075 222.824 128.837 222.381 125.47 221.335C121.468 220.091 118.956 218.079 118.001 215.351C117.552 214.193 117.418 212.937 117.613 211.71C117.807 210.483 118.323 209.33 119.107 208.366C125.027 200.665 145.571 198.493 148.328 198.236L153.92 187.665C154.278 185.142 152.585 183.233 155.51 183.185L190.109 182.716C192.982 182.656 192.167 184.432 192.659 186.891L197.93 196.285L175.243 205.845L178.673 214.189L178.449 214.319C171.809 218.164 152.713 222.824 137.703 222.824Z" fill="#2F2E41"/>
<path d="M194.789 196.687C194.789 196.687 226.474 193.067 224.407 207.546C222.341 222.026 198.233 232.282 161.727 207.546L165.86 200.306C165.86 200.306 179.464 199.631 187.729 196.011L194.789 196.687Z" fill="#2F2E41"/>
<path d="M149.932 131.089C149.932 131.089 143.91 129.996 142.268 139.287C140.625 148.578 137.995 170.587 137.995 170.587L129.826 198.858C128.863 199.368 128.065 200.142 127.525 201.089C126.986 202.035 126.727 203.115 126.78 204.203C126.832 205.291 127.194 206.341 127.822 207.231C128.45 208.121 129.319 208.815 130.327 209.231C131.335 209.646 132.441 209.767 133.515 209.579C134.59 209.39 135.588 208.901 136.394 208.167C137.2 207.434 137.781 206.486 138.067 205.435C138.354 204.385 138.336 203.274 138.014 202.234L148.944 172.229L151.027 146.394V132.858C151.027 132.49 150.925 132.13 150.731 131.818C150.538 131.506 150.261 131.253 149.932 131.089Z" fill="#FEB8B8"/>
<path d="M192.32 131.089C192.32 131.089 198.342 129.996 199.985 139.287C201.627 148.578 204.258 170.587 204.258 170.587L212.427 198.858C213.39 199.368 214.188 200.142 214.727 201.089C215.267 202.035 215.525 203.115 215.473 204.203C215.42 205.291 215.059 206.341 214.431 207.231C213.803 208.121 212.934 208.815 211.926 209.231C210.917 209.646 209.812 209.767 208.737 209.579C207.663 209.39 206.664 208.901 205.858 208.167C205.052 207.434 204.472 206.486 204.185 205.435C203.898 204.385 203.917 203.274 204.239 202.234L193.309 172.229L191.225 146.394V132.858C191.225 132.49 191.328 132.13 191.521 131.818C191.715 131.506 191.991 131.253 192.32 131.089Z" fill="#FEB8B8"/>
<path d="M191.861 123.409L180.47 119.156L158.392 118.871L148.888 123.409L151.557 138.724C151.557 138.724 146.168 147.834 152.102 156.945L153.433 189.411C153.433 189.411 174.72 201.734 192.688 186.936L188.627 156.751C188.627 156.751 195.419 142.746 190.154 137.543L191.861 123.409Z" fill="#E5E5E5"/>
<path d="M187.222 128.168L191.861 123.409C191.861 123.409 201.987 128.726 201.778 146.51L189.005 142.58L187.222 128.168Z" fill="#E5E5E5"/>
<path d="M154.042 128.168L149.113 123.247C149.113 123.247 140.415 129.964 140.624 147.747L152.259 142.58L154.042 128.168Z" fill="#E5E5E5"/>
<path d="M186.174 210.549C186.174 210.549 182.626 203.096 176.701 206.669C170.775 210.241 159.873 216.176 159.873 216.176C159.873 216.176 157.323 220.431 162.891 219.312C168.459 218.192 186.347 217.319 186.347 217.319L186.174 210.549Z" fill="#FEB8B8"/>
<path d="M176.317 77.3248C176.367 77.2767 176.42 77.2335 176.469 77.1842C179.64 74.0189 180.282 69.5284 177.904 67.1544C175.657 64.9109 171.518 65.3636 168.393 68.0914C165.715 65.5453 162.123 64.8354 159.798 66.5931C157.117 68.6199 157.137 73.1559 159.844 76.7247C160.03 76.969 160.224 77.2001 160.424 77.4224C156.822 78.7388 153.711 81.1282 151.514 84.2673C149.317 87.4063 148.138 91.1436 148.138 94.9733V112.761C148.138 113.282 148.241 113.799 148.441 114.281C148.641 114.763 148.934 115.2 149.303 115.569C149.673 115.938 150.112 116.231 150.594 116.43C151.077 116.63 151.594 116.733 152.117 116.733H185.047C186.067 116.733 187.045 116.328 187.766 115.608C188.487 114.888 188.892 113.912 188.892 112.894V94.9733C188.892 91.0921 187.68 87.3074 185.427 84.1447C183.174 80.9821 179.989 78.5984 176.317 77.3248Z" fill="#2F2E41"/>
<path d="M180.085 110.389C186.187 104.296 186.187 94.4189 180.085 88.3266C173.982 82.2343 164.088 82.2343 157.986 88.3266C151.883 94.4189 151.883 104.296 157.986 110.389C164.088 116.481 173.982 116.481 180.085 110.389Z" fill="#FFB6B6"/>
<path d="M152.616 89.5451C156.187 92.0021 160.425 93.3098 164.762 93.2924C163.215 94.3633 161.454 95.0866 159.6 95.4126C165.366 96.6474 171.325 96.6808 177.105 95.5108C178.39 95.3051 179.629 94.8801 180.769 94.2543C181.338 93.9375 181.833 93.5049 182.222 92.9846C182.612 92.4643 182.888 91.8679 183.031 91.2343C183.415 89.0439 181.706 87.0539 179.929 85.7127C177.209 83.6907 174.072 82.2975 170.747 81.6341C167.421 80.9706 163.989 81.0534 160.699 81.8766C158.551 82.4309 156.399 83.3674 155.004 85.0896C153.609 86.8118 153.196 89.4669 154.525 91.2403L152.616 89.5451Z" fill="#2F2E41"/>
<path d="M69.0337 58.4142L69.5262 57.7515L82.645 67.4661C81.932 65.2969 79.4086 58.4202 75.2718 55.6764C70.3299 52.3986 66.8529 53.4182 64.9586 56.2646C63.0643 59.111 63.4699 62.706 68.4119 65.9841C72.6011 68.7628 80.0637 68.3764 82.241 68.1942L69.0337 58.4142Z" fill="#F2F2F2"/>
<path d="M266.42 5.22737L267.029 5.78528L255.986 17.8007C258.221 17.3184 265.335 15.528 268.498 11.706C272.278 7.14002 271.624 3.58163 268.985 1.4047C266.346 -0.772223 262.723 -0.743392 258.943 3.82264C255.739 7.69307 255.348 15.143 255.303 17.3238L266.42 5.22737Z" fill="#F2F2F2"/>
<path d="M88.3293 133.518L88.9384 134.076L77.8958 146.092C80.131 145.609 87.2443 143.819 90.4081 139.997C94.1876 135.431 93.5335 131.873 90.8948 129.696C88.2561 127.519 84.6324 127.548 80.8526 132.114C77.6487 135.984 77.2574 143.434 77.2124 145.615L88.3293 133.518Z" fill="#F2F2F2"/>
<path d="M181.703 18.9961L182.419 19.4094L174.238 33.5234C176.316 32.5702 182.874 29.2874 185.136 24.8731C187.837 19.5995 186.428 16.2664 183.381 14.7102C180.333 13.1541 176.801 13.9641 174.099 19.2378C171.809 23.708 173.04 31.0663 173.468 33.2052L181.703 18.9961Z" fill="#F2F2F2"/>
<path d="M258.146 107.273L258.862 107.687L250.681 121.801C252.759 120.848 259.317 117.565 261.578 113.15C264.28 107.877 262.871 104.544 259.823 102.988C256.776 101.431 253.244 102.241 250.542 107.515C248.252 111.985 249.482 119.344 249.911 121.483L258.146 107.273Z" fill="#F2F2F2"/>
</g>
<defs>
<clipPath id="clip0_839_2284">
<rect width="338" height="255" fill="white"/>
</clipPath>
</defs>
</svg>
