<svg width="27" height="19" viewBox="0 0 27 19" fill="none" xmlns="http://www.w3.org/2000/svg">
<path d="M18.4091 8.14286C20.4464 8.14286 22.0786 6.32429 22.0786 4.07143C22.0786 1.81857 20.4464 0 18.4091 0C16.3718 0 14.7273 1.81857 14.7273 4.07143C14.7273 6.32429 16.3718 8.14286 18.4091 8.14286ZM8.59091 8.14286C10.6282 8.14286 12.2605 6.32429 12.2605 4.07143C12.2605 1.81857 10.6282 0 8.59091 0C6.55364 0 4.90909 1.81857 4.90909 4.07143C4.90909 6.32429 6.55364 8.14286 8.59091 8.14286ZM8.59091 10.8571C5.73136 10.8571 0 12.445 0 15.6071V17.6429C0 18.3893 0.552273 19 1.22727 19H15.9545C16.6295 19 17.1818 18.3893 17.1818 17.6429V15.6071C17.1818 12.445 11.4505 10.8571 8.59091 10.8571ZM18.4091 10.8571C18.0532 10.8571 17.6482 10.8843 17.2186 10.925C17.2432 10.9386 17.2555 10.9657 17.2677 10.9793C18.6668 12.1057 19.6364 13.6121 19.6364 15.6071V17.6429C19.6364 18.1179 19.5505 18.5793 19.4155 19H25.7727C26.4477 19 27 18.3893 27 17.6429V15.6071C27 12.445 21.2686 10.8571 18.4091 10.8571Z" fill="#86ABFF"/>
</svg>
