<svg width="216" height="230" viewBox="0 0 216 230" fill="none" xmlns="http://www.w3.org/2000/svg">
<g clip-path="url(#clip0_839_2244)">
<path d="M196.786 184.266L179.252 154.257C179.252 154.257 205.806 164.938 202.793 184.266H196.786Z" fill="#E5E5E5"/>
<path d="M15.0309 184.465L14.3652 184.451C14.6227 175.923 15.4123 167.427 16.7281 159.03C19.6065 141.052 24.3927 129.245 30.9539 123.937L31.3361 124.564C16.0092 136.964 15.0387 183.992 15.0309 184.465Z" fill="#E5E5E5"/>
<path d="M23.3514 184.282L22.6858 184.267C22.7001 183.418 23.1161 163.4 29.9555 157.867L30.3377 158.495C23.7743 163.804 23.3547 184.078 23.3514 184.282Z" fill="#E5E5E5"/>
<path d="M35.123 124.634C36.9611 124.634 38.4512 122.917 38.4512 120.799C38.4512 118.681 36.9611 116.964 35.123 116.964C33.2849 116.964 31.7948 118.681 31.7948 120.799C31.7948 122.917 33.2849 124.634 35.123 124.634Z" fill="#86ABFF"/>
<path d="M33.4748 157.614C35.3129 157.614 36.803 155.897 36.803 153.779C36.803 151.661 35.3129 149.944 33.4748 149.944C31.6367 149.944 30.1466 151.661 30.1466 153.779C30.1466 155.897 31.6367 157.614 33.4748 157.614Z" fill="#86ABFF"/>
<path d="M21.8001 126.933C22.4256 131.536 20.7953 135.654 20.7953 135.654C20.7953 135.654 18.151 132.307 17.5255 127.704C16.9 123.1 18.5302 118.983 18.5302 118.983C18.5302 118.983 21.1746 122.329 21.8001 126.933Z" fill="#E5E5E5"/>
<path d="M32.679 138.113C28.8539 139.625 25.0511 138.492 25.0511 138.492C25.0511 138.492 27.4501 134.909 31.2752 133.397C35.1002 131.885 38.903 133.018 38.903 133.018C38.903 133.018 36.504 136.601 32.679 138.113Z" fill="#E5E5E5"/>
<path d="M32.8019 167.32C31.0707 167.946 29.2271 168.038 27.4554 167.586C28.5803 165.936 30.0954 164.695 31.818 164.015C33.5406 163.334 35.3973 163.241 37.1645 163.749C36.0068 165.359 34.5024 166.59 32.8019 167.32Z" fill="#E5E5E5"/>
<path d="M215.667 185.033H0.33282C0.24455 185.033 0.159901 184.993 0.0974855 184.921C0.0350697 184.849 0 184.752 0 184.65C0 184.548 0.0350697 184.451 0.0974855 184.379C0.159901 184.307 0.24455 184.266 0.33282 184.266H215.667C215.755 184.266 215.84 184.307 215.903 184.379C215.965 184.451 216 184.548 216 184.65C216 184.752 215.965 184.849 215.903 184.921C215.84 184.993 215.755 185.033 215.667 185.033Z" fill="#CBCBCB"/>
<path d="M136.387 202.712L133.664 210.878L105.034 202.662L109.052 190.61L136.387 202.712Z" fill="#FFB7B7"/>
<path d="M143.951 203.67L135.171 230L134.882 229.872C132.523 228.828 130.621 226.747 129.594 224.086C128.567 221.426 128.499 218.405 129.405 215.687L129.405 215.686L134.767 199.605L143.951 203.67Z" fill="#2F2E41"/>
<path d="M92.8817 100.471L80.4048 101.817L79.7859 144.592C79.9513 146.688 80.8226 148.626 82.2131 149.992C83.6037 151.357 85.4029 152.04 87.2255 151.896L95.136 151.268L92.8817 100.471Z" fill="#E5E5E5"/>
<path d="M136.868 98.3652L128.331 98.2386L127.825 149.064C129.712 149.137 131.591 148.761 133.346 147.959C135.1 147.158 136.693 145.949 138.024 144.407C139.355 142.865 140.396 141.023 141.082 138.997C141.769 136.971 142.085 134.804 142.012 132.63L136.868 98.3652Z" fill="#E5E5E5"/>
<path d="M87.3321 167.12C87.1299 168.595 86.8365 170.05 86.454 171.476C86.0232 172.872 85.3581 174.163 84.9642 175.573C83.7087 180.068 85.4492 185.08 88.2291 188.549C90.6399 191.546 93.7516 193.675 97.189 194.68C99.6969 195.407 102.304 195.511 104.889 195.612C112.045 195.892 119.386 196.142 126.167 193.492C128.31 192.634 130.379 191.551 132.349 190.256C132.971 189.914 133.519 189.417 133.953 188.801C134.471 187.952 134.537 186.852 134.532 185.815C134.517 182.319 133.902 178.841 134.048 175.35C134.129 173.416 134.443 171.483 134.288 169.555C134.074 167.365 133.278 165.305 132.009 163.657C130.74 162.009 129.059 160.852 127.198 160.347C125.274 159.871 123.279 160.13 121.321 160.347C116.237 160.91 111.131 161.173 106.024 161.135C100.806 161.097 95.6203 160.179 90.4282 160.083C88.8927 160.055 88.9237 160.6 88.4349 162.313C87.9847 163.888 87.6164 165.494 87.3321 167.12Z" fill="#2F2E41"/>
<path d="M66.9274 164.279C65.5242 163.873 64.0784 163.696 62.6325 163.753C61.1132 163.85 59.6293 164.318 58.2793 165.127C56.9292 165.936 55.7441 167.066 54.8027 168.444C53.8613 169.821 53.1852 171.414 52.8192 173.115C52.4533 174.817 52.406 176.589 52.6805 178.314C53.0308 180.182 53.6036 181.985 54.3823 183.672C55.5214 186.336 56.8875 188.993 58.9961 190.7C60.2296 191.698 61.6572 192.321 63.0679 192.933L74.1736 197.754C75.8074 198.463 77.4415 199.172 79.0914 199.83C87.3806 203.131 96.0227 205.111 104.778 205.714C107.444 205.897 110.151 205.947 112.753 205.248C113.37 205.082 114.029 204.834 114.386 204.231C114.598 203.806 114.723 203.331 114.751 202.842L115.434 197.33C115.531 196.554 115.623 195.737 115.376 195.006C115.063 194.08 114.279 193.497 113.53 193.002C106.229 188.17 97.704 185.504 91.5584 178.872C90.1117 177.311 88.901 174.836 87.1432 173.776C85.1498 172.573 82.8023 171.887 80.7419 170.779C76.2377 168.356 71.8091 165.572 66.9274 164.279Z" fill="#2F2E41"/>
<path opacity="0.1" d="M78.0149 171.711C81.9403 173.128 98.5134 182.947 101.354 186.375C100.973 186.534 88.0543 178.191 87.6666 178.057C84.1429 176.839 80.5995 175.612 77.2532 173.829C76.58 173.47 72.8798 171.784 73.0474 170.805C73.2365 169.701 77.318 171.459 78.0149 171.711Z" fill="black"/>
<path d="M101.705 86.0935L91.1363 95.3401C91.1363 95.3401 79.9839 95.7421 80.3608 103.956C80.7376 112.171 85.2011 151.063 85.2011 151.063L86.1695 164.445L104.539 170.476C114.464 173.735 124.95 173.993 134.987 171.228L132.804 157.803C132.804 157.803 141.644 96.8313 136.318 94.1469C130.993 91.4625 127.665 92.2295 127.665 92.2295L120.99 85.5183L101.705 86.0935Z" fill="#E5E5E5"/>
<path d="M132.99 71.1581C132.99 83.1617 123.358 81.3461 111.475 81.3461C99.5923 81.3461 89.9596 83.1617 89.9596 71.1581C89.9596 59.1545 94.6649 37.8773 111.475 37.8773C128.864 37.8773 132.99 59.1545 132.99 71.1581Z" fill="#2F2E41"/>
<path d="M122.659 75.226C128.313 68.7113 128.313 58.149 122.659 51.6343C117.005 45.1196 107.838 45.1196 102.184 51.6343C96.5306 58.149 96.5306 68.7114 102.184 75.226C107.838 81.7407 117.005 81.7407 122.659 75.226Z" fill="#FFB7B7"/>
<path d="M94.6753 63.0077H100.402L102.928 54.8573L103.433 63.0077H106.17L107.643 58.2533L107.938 63.0077H128.275C128.275 58.3242 126.66 53.8325 123.786 50.5208C120.912 47.209 117.013 45.3485 112.949 45.3485H110.001C105.937 45.3485 102.038 47.209 99.1642 50.5208C96.29 53.8325 94.6753 58.3242 94.6753 63.0077Z" fill="#2F2E41"/>
<path d="M126.001 88.011H97.0458V128.277H126.001V88.011Z" fill="#86ABFF"/>
<path d="M98.6415 202.329L101.365 210.494L129.995 202.279L125.976 190.227L98.6415 202.329Z" fill="#FFB7B7"/>
<path d="M100.261 199.221L105.623 215.303L105.623 215.303C106.529 218.021 106.461 221.043 105.434 223.703C104.407 226.363 102.505 228.444 100.146 229.489L99.8571 229.617L91.0775 203.287L100.261 199.221Z" fill="#2F2E41"/>
<path d="M155.871 161.154C158.171 160.489 160.555 160.302 162.912 160.599C164.795 160.838 166.734 161.442 168.109 162.943C169.782 164.771 170.319 167.597 170.364 170.252C170.438 175.541 168.915 180.696 166.057 184.835C165.359 185.882 164.529 186.803 163.594 187.566C162.586 188.293 161.512 188.89 160.39 189.346L135.519 200.649C128.976 203.622 122.41 206.605 115.586 208.565C115.214 208.771 114.787 208.799 114.398 208.643C114.009 208.487 113.69 208.159 113.511 207.731C113.506 207.718 113.5 207.705 113.495 207.692C111.316 204.105 109.488 200.252 108.044 196.202C107.976 196.106 107.928 195.992 107.906 195.871C107.884 195.749 107.888 195.623 107.917 195.503C107.946 195.383 108 195.273 108.074 195.183C108.147 195.092 108.239 195.023 108.341 194.982L125.932 183.335C127.192 182.501 128.467 181.655 129.513 180.493C130.273 179.644 130.896 178.645 131.351 177.544C131.716 176.667 131.75 174.596 132.216 173.947C132.672 173.312 134.232 173.261 134.952 173.011C135.968 172.653 136.963 172.219 137.931 171.714C141.866 169.685 145.37 166.738 149.143 164.363C151.258 162.969 153.519 161.891 155.871 161.154Z" fill="#2F2E41"/>
<path opacity="0.1" d="M145.898 169.851C142.876 172.467 138.963 174.871 135.967 177.555C134.945 178.471 117.903 189.511 117.662 190.977C120.457 191.52 138.258 177.171 140.805 175.739C143.352 174.307 145.61 172.288 147.847 170.284C148.417 169.773 150.833 168.237 149.197 167.667C148.275 167.345 146.579 169.328 145.898 169.851Z" fill="black"/>
<path d="M200.22 68.9185C205.964 68.9185 210.62 63.5535 210.62 56.9353C210.62 50.3172 205.964 44.9521 200.22 44.9521C194.476 44.9521 189.82 50.3172 189.82 56.9353C189.82 63.5535 194.476 68.9185 200.22 68.9185Z" fill="#F1F1F1"/>
<path d="M180.972 71.0648C185.001 71.0648 188.268 67.3012 188.268 62.6587C188.268 58.0161 185.001 54.2526 180.972 54.2526C176.943 54.2526 173.677 58.0161 173.677 62.6587C173.677 67.3012 176.943 71.0648 180.972 71.0648Z" fill="#F1F1F1"/>
<path d="M47.3313 65.5812C50.562 65.5812 53.181 62.5635 53.181 58.841C53.181 55.1185 50.562 52.1008 47.3313 52.1008C44.1007 52.1008 41.4817 55.1185 41.4817 58.841C41.4817 62.5635 44.1007 65.5812 47.3313 65.5812Z" fill="#F1F1F1"/>
<path d="M56.9622 70.1136C59.2285 70.1136 61.0657 67.9967 61.0657 65.3854C61.0657 62.7741 59.2285 60.6572 56.9622 60.6572C54.696 60.6572 52.8588 62.7741 52.8588 65.3854C52.8588 67.9967 54.696 70.1136 56.9622 70.1136Z" fill="#F1F1F1"/>
<path d="M113.709 10.3045C116.179 10.3045 118.181 7.99777 118.181 5.15226C118.181 2.30674 116.179 0 113.709 0C111.24 0 109.238 2.30674 109.238 5.15226C109.238 7.99777 111.24 10.3045 113.709 10.3045Z" fill="#F1F1F1"/>
<path opacity="0.17" d="M87.0612 113.705L87.4608 110.15C87.4608 110.15 102.371 111.404 100.041 115.622C97.7114 119.84 92.0535 120.224 92.0535 120.224L87.0612 113.705Z" fill="#2F2E41"/>
<path d="M98.3158 98.2473C99.1698 98.3557 99.9925 98.6805 100.725 99.1985C101.457 99.7166 102.081 100.415 102.551 101.244C102.979 102 103.271 102.848 103.408 103.737C103.544 104.626 103.524 105.538 103.347 106.418C103.171 107.298 102.841 108.127 102.38 108.857C101.918 109.586 101.333 110.201 100.659 110.663C100.413 110.831 100.155 110.977 99.8888 111.1L90.7241 143.4C90.4586 144.037 90.0863 144.608 89.6288 145.079C89.1712 145.55 88.6373 145.912 88.0579 146.144C87.4784 146.377 86.8648 146.475 86.2523 146.433C85.6398 146.392 85.0405 146.211 84.4888 145.902C83.9371 145.592 83.444 145.16 83.0377 144.63C82.6315 144.1 82.3201 143.483 82.1215 142.814C81.9229 142.146 81.841 141.438 81.8805 140.732C81.92 140.027 82.0802 139.337 82.3518 138.703L92.0981 106.762C91.8326 105.705 91.7973 104.589 91.9953 103.513C92.1933 102.436 92.6185 101.433 93.2332 100.591C93.848 99.7492 94.6334 99.0949 95.5199 98.6861C96.4064 98.2773 97.3667 98.1266 98.3158 98.2473Z" fill="#FFB7B7"/>
<path d="M87.198 110.453C87.198 110.453 92.4493 120.79 100.041 115.622L92.6837 148.065H86.4847L80.072 146.685L81.8675 133.281L87.198 110.453Z" fill="#E5E5E5"/>
<path d="M124.693 117.518L120.343 110.637C120.343 110.637 122.434 103.499 130.541 106.109C130.541 106.109 135.7 119.415 124.693 117.518Z" fill="#E5E5E5"/>
<path opacity="0.17" d="M124.693 117.518L120.343 110.637C120.343 110.637 122.434 103.499 130.541 106.109C130.541 106.109 135.7 119.415 124.693 117.518Z" fill="#2F2E41"/>
<path d="M125.845 93.4753C127.1 94.1476 128.104 95.3165 128.674 96.7696C129.244 98.2227 129.343 99.8633 128.952 101.393L138.698 133.335C138.97 133.969 139.13 134.658 139.17 135.364C139.209 136.069 139.127 136.777 138.929 137.446C138.73 138.115 138.419 138.732 138.012 139.262C137.606 139.792 137.113 140.224 136.561 140.533C136.01 140.843 135.41 141.023 134.798 141.065C134.185 141.107 133.571 141.008 132.992 140.776C132.413 140.543 131.879 140.181 131.421 139.71C130.964 139.239 130.591 138.668 130.326 138.031L121.161 105.731C120.895 105.608 120.637 105.462 120.391 105.294C119.717 104.832 119.132 104.217 118.67 103.488C118.208 102.758 117.879 101.929 117.703 101.049C117.526 100.169 117.505 99.2574 117.642 98.3682C117.779 97.4791 118.071 96.631 118.499 95.8748C118.969 95.0462 119.593 94.3478 120.325 93.8298C121.057 93.3117 121.88 92.9869 122.734 92.8786C123.799 92.7395 124.877 92.9462 125.845 93.4753Z" fill="#FFB7B7"/>
<path d="M120.343 110.637C120.343 110.637 127.521 115.655 130.541 106.109L140.655 136.794L137.65 142.85L137.215 142.892C135.422 143.064 133.62 142.732 131.963 141.925C130.306 141.117 128.844 139.859 127.702 138.257C125.373 134.989 123.788 131.104 123.089 126.953L120.343 110.637Z" fill="#E5E5E5"/>
</g>
<defs>
<clipPath id="clip0_839_2244">
<rect width="216" height="230" fill="white"/>
</clipPath>
</defs>
</svg>
