<svg width="375" height="350" viewBox="0 0 375 350" fill="none" xmlns="http://www.w3.org/2000/svg">
<path fill-rule="evenodd" clip-rule="evenodd" d="M186.418 337.733C168.057 334.451 152.191 323.255 133.64 321.323C104.431 318.283 61.6928 348.531 46.667 323.185C30.2989 295.575 89.2261 266.471 82.4976 235.055C75.9011 204.254 18.2844 202.988 14.2336 171.747C10.8809 145.889 44.3622 128.313 67.0038 115.561C87.2949 104.133 111.654 104.26 134.911 103.782C152.574 103.419 169.117 116.701 186.418 113.106C209.893 108.227 225.354 79.7067 249.324 80.0023C272.009 80.282 306.755 91.8041 307.04 114.593C307.461 148.173 238.678 165.165 250.784 196.469C265.667 234.956 339.169 215.256 359.781 250.977C373.031 273.939 342.4 303.001 321.953 319.808C302.064 336.155 274.567 338.591 249.089 341.961C228.067 344.742 207.293 341.465 186.418 337.733Z" fill="url(#paint0_linear_836_4588)"/>
<defs>
<linearGradient id="paint0_linear_836_4588" x1="14" y1="80" x2="477.048" y2="127.548" gradientUnits="userSpaceOnUse">
<stop stop-color="#92A3FD"/>
<stop offset="1" stop-color="#9DCEFF"/>
</linearGradient>
</defs>
</svg>
