<svg width="37" height="37" viewBox="0 0 37 37" fill="none" xmlns="http://www.w3.org/2000/svg">
<path fill-rule="evenodd" clip-rule="evenodd" d="M18.5 33.9167C25.9555 33.9167 32.0004 27.9288 32.0004 20.5427C32.0004 13.1581 25.9571 7.17029 18.5 7.17029C11.0445 7.17029 4.99966 13.1566 4.99966 20.5427C4.99966 27.9288 11.043 33.9167 18.5 33.9167ZM18.5 13.485C19.1213 13.485 19.6255 13.9845 19.6255 14.5996V20.0817L23.0449 23.4703C23.1492 23.5733 23.232 23.696 23.2886 23.8312C23.3451 23.9664 23.3742 24.1115 23.3742 24.2581C23.3742 24.4047 23.3451 24.5498 23.2886 24.6851C23.232 24.8203 23.1492 24.9429 23.0449 25.0459C22.8329 25.2549 22.5471 25.3721 22.2494 25.3721C21.9517 25.3721 21.6659 25.2549 21.4539 25.0459L17.7045 21.3305C17.6004 21.2277 17.5177 21.1053 17.4611 20.9703C17.4045 20.8354 17.3751 20.6906 17.3746 20.5443V14.5996C17.3746 13.9829 17.8787 13.485 18.5 13.485ZM12.7034 3.6075C12.7816 3.73156 12.8343 3.8699 12.8587 4.01451C12.883 4.15911 12.8784 4.30711 12.8451 4.44993C12.8119 4.59275 12.7506 4.72754 12.6649 4.84651C12.5791 4.96548 12.4707 5.06625 12.3457 5.143L6.34708 8.85842C6.09392 9.0153 5.78913 9.06606 5.49879 8.99968C5.20845 8.9333 4.95599 8.75514 4.79616 8.50383C4.71798 8.37977 4.6652 8.24143 4.64086 8.09682C4.61652 7.95222 4.62112 7.80422 4.65439 7.6614C4.68765 7.51859 4.74893 7.38379 4.83466 7.26482C4.92039 7.14585 5.02888 7.04508 5.15383 6.96833L11.154 3.25292C11.4072 3.09603 11.712 3.04527 12.0023 3.11165C12.2926 3.17803 12.5451 3.35619 12.7049 3.6075M24.2967 3.6075C24.4565 3.35662 24.7087 3.17875 24.9987 3.11239C25.2886 3.04603 25.5931 3.09651 25.8461 3.25292L31.8462 6.96833C31.9712 7.04508 32.0797 7.14585 32.1654 7.26482C32.2511 7.38379 32.3124 7.51859 32.3457 7.6614C32.379 7.80422 32.3836 7.95222 32.3592 8.09682C32.3349 8.24143 32.2821 8.37977 32.2039 8.50383C32.0441 8.75514 31.7916 8.9333 31.5013 8.99968C31.211 9.06606 30.9062 9.0153 30.653 8.85842L24.6544 5.143C24.5293 5.06638 24.4207 4.9657 24.3348 4.84679C24.2489 4.72788 24.1875 4.5931 24.1541 4.45028C24.1206 4.30745 24.1159 4.15941 24.1401 4.01474C24.1644 3.87008 24.2171 3.73165 24.2952 3.6075" fill="#86ABFF"/>
</svg>
